<svg width="32" height="32" viewBox="0 0 32 32" xmlns="http://www.w3.org/2000/svg">
<rect width="32" height="32" rx="8" fill="#EEEEEE"/>
<path fill-rule="evenodd" clip-rule="evenodd" d="M6.32555 20.9805C5.72692 20.1301 5.44069 19.1128 5.51202 18.0891V13.9109C5.4365 12.8797 5.71841 11.8534 6.31393 10.9917C6.85241 10.3269 7.77248 9.99632 9.07414 10C10.3758 10.0037 11.2571 10.2953 11.7181 10.8747C12.2803 11.5927 12.5545 12.4804 12.491 13.3761V14.3566H10.0853V13.2925C10.082 13.0125 10.0568 12.7332 10.0097 12.4568C9.98062 12.2568 9.88482 12.0711 9.73659 11.9276C9.64509 11.8524 9.53887 11.7954 9.42412 11.76C9.30938 11.7246 9.18842 11.7115 9.06833 11.7215C8.89586 11.6968 8.71966 11.7237 8.56369 11.7984C8.40773 11.8732 8.27957 11.9922 8.19668 12.1393C8.04389 12.5305 7.97665 12.9477 7.99911 13.3649V18.6685C7.9726 19.0885 8.05027 19.5085 8.22574 19.8942C8.30958 20.0333 8.43399 20.1459 8.58369 20.2181C8.73338 20.2904 8.90183 20.3191 9.06833 20.3008C9.23194 20.323 9.39869 20.2951 9.54477 20.2211C9.69086 20.147 9.80883 20.0307 9.88187 19.8886C10.0224 19.4966 10.0836 19.0825 10.062 18.6685V17.5543H12.4678V18.5181C12.5386 19.427 12.2867 20.3321 11.753 21.0864C11.2416 21.6992 10.3584 22 9.1032 22C7.84803 22 6.86598 21.6657 6.32555 20.9805ZM15.7091 10H18.3074L20.5 22H18.3403L17.9511 19.3486H16.1312L15.6926 21.9829H13.5L15.7091 10ZM17.7099 17.84L17.0192 13.0171L16.334 17.84H17.7099ZM20.5 11.8083H22.3134L22.3078 22H24.709V11.8083H26.5V10H20.5V11.8083Z" fill="#111111"/>
</svg>
