<svg width="28" height="28" viewBox="0 0 28 28" fill="none" xmlns="http://www.w3.org/2000/svg">
<path d="M0.0853271 8.48988C0.0853271 7.63485 0.60043 7.17381 1.63064 7.10674L5.60048 7.13189C5.86691 7.13189 6.04453 7.25763 6.13334 7.50911C6.54187 8.76651 6.99925 9.85206 7.50547 10.7658C8.01169 11.6795 8.67333 12.7315 9.49039 13.9218C9.56144 14.0727 9.6769 14.1482 9.83675 14.1482C9.96109 14.1482 10.0588 14.0895 10.1298 13.9721L10.2098 13.6955L10.2364 9.34491C10.2364 9.04313 10.1609 8.84195 10.0099 8.74136C9.85896 8.64077 9.5792 8.56532 9.17067 8.51503C8.85095 8.46473 8.6911 8.28031 8.6911 7.96177C8.6911 7.89471 8.69998 7.84442 8.71774 7.81089C9.09074 6.72114 10.1565 6.17627 11.9149 6.17627L13.4069 6.15112C14.0819 6.15112 14.6414 6.31039 15.0855 6.62893C15.5295 6.94747 15.7516 7.45043 15.7516 8.13781V13.8464C15.8759 13.9302 15.9913 13.9721 16.0979 13.9721C16.3643 13.9721 16.5953 13.8212 16.7906 13.5195C18.7445 10.9376 19.8013 9.21079 19.9612 8.33899C19.9612 8.32223 19.9789 8.28031 20.0145 8.21325C20.1388 7.96177 20.3431 7.74383 20.6273 7.55941C20.9115 7.37499 21.1601 7.24925 21.3733 7.18219C21.4443 7.14866 21.5243 7.13189 21.6131 7.13189H25.7428L26.0092 7.15704C26.3644 7.15704 26.6398 7.31631 26.8351 7.63485C26.9062 7.73544 26.955 7.84442 26.9817 7.96177C27.0083 8.07913 27.0261 8.19649 27.035 8.31385C27.0439 8.4312 27.0483 8.49826 27.0483 8.51503V8.69106C26.924 9.37844 26.6087 10.1119 26.1025 10.8915C25.5962 11.6711 24.9524 12.5135 24.1708 13.4189C23.3893 14.3242 22.9008 14.9194 22.7054 15.2044C22.5456 15.4056 22.4657 15.59 22.4657 15.7576C22.4657 15.8918 22.5367 16.0426 22.6788 16.2103L26.5687 20.8375C26.7819 21.1058 26.8884 21.3992 26.8884 21.7177C26.8884 22.1033 26.7286 22.4218 26.4089 22.6733C26.0891 22.9248 25.7072 23.0673 25.2632 23.1008L24.8103 23.126H20.7605C20.7427 23.126 20.7072 23.1302 20.6539 23.1385C20.6006 23.1469 20.5651 23.1511 20.5473 23.1511C20.1566 23.1511 19.7924 22.9919 19.455 22.6733C19.3306 22.5392 18.4958 21.55 16.9505 19.7059C16.8617 19.5885 16.7374 19.4795 16.5775 19.3789C16.5064 19.6472 16.4132 20.0328 16.2977 20.5357C16.1823 21.0387 16.0979 21.3992 16.0446 21.6171L15.9647 22.0446C15.7871 22.6314 15.4141 22.9835 14.8457 23.1008L14.4727 23.126H11.8616C10.3874 23.126 8.91756 22.4889 7.45218 21.2147C5.98681 19.9406 4.66797 18.2934 3.49566 16.2732C2.32336 14.2529 1.23099 11.9016 0.218543 9.21917C0.129733 9.00122 0.0853271 8.75813 0.0853271 8.48988ZM16.0979 15.0032C15.7249 15.0032 15.3874 14.9068 15.0855 14.714C14.7835 14.5212 14.6325 14.2571 14.6325 13.9218V8.13781C14.6325 7.8025 14.5437 7.5636 14.3661 7.42109C14.1885 7.27859 13.8776 7.20734 13.4336 7.20734L11.9149 7.25763C11.1512 7.25763 10.5739 7.38337 10.1831 7.63485C10.9647 7.98692 11.3554 8.55694 11.3554 9.34491V13.7709C11.3199 14.1901 11.1423 14.538 10.8226 14.8146C10.5028 15.0912 10.1476 15.2295 9.75682 15.2295C9.22396 15.2295 8.81543 14.9864 8.53124 14.5002C7.14579 12.5219 6.11558 10.6442 5.44062 8.8671L5.20083 8.21325L1.65728 8.18811C1.42637 8.18811 1.29759 8.20068 1.27095 8.22583C1.24431 8.25098 1.23099 8.32223 1.23099 8.43958C1.23099 8.59047 1.24875 8.74974 1.28427 8.9174L1.84378 10.3257C3.3358 13.9637 4.9566 16.8306 6.70617 18.9263C8.45575 21.0219 10.1742 22.0698 11.8616 22.0698H14.526C14.6325 22.0698 14.7125 22.0404 14.7658 21.9817C14.819 21.9231 14.8634 21.8099 14.899 21.6422L14.9523 21.3908L15.4585 19.1778C15.6006 18.876 15.7249 18.6748 15.8315 18.5742C16.0269 18.3898 16.2578 18.2976 16.5242 18.2976C16.9505 18.2976 17.3857 18.5407 17.8297 19.0269L20.0944 21.7428C20.2365 21.9608 20.3875 22.0698 20.5473 22.0698H24.9435C25.4763 22.0698 25.7428 21.944 25.7428 21.6925C25.7428 21.6087 25.7161 21.5249 25.6628 21.4411L21.7996 16.8893C21.4976 16.5372 21.3466 16.16 21.3466 15.7576C21.3466 15.3553 21.4887 14.9697 21.7729 14.6008C22.0038 14.2655 22.4523 13.7081 23.1184 12.9285C23.7845 12.1489 24.3662 11.4196 24.8635 10.7406C25.3609 10.0616 25.6895 9.4455 25.8493 8.89225L25.9293 8.56532C25.9115 8.53179 25.9026 8.47731 25.9026 8.40186C25.9026 8.32642 25.8938 8.26355 25.876 8.21325H21.693C21.4266 8.31385 21.2134 8.46473 21.0536 8.66592L20.8937 9.14373C20.4496 10.3005 19.2862 12.086 17.4034 14.5002C17.0304 14.8355 16.5953 15.0032 16.0979 15.0032Z" fill="#666666"/>
</svg>
