<svg width="32" height="32" viewBox="0 0 32 32" fill="none" xmlns="http://www.w3.org/2000/svg">
<mask id="path-1-inside-1_49546_455" fill="white">
<path fill-rule="evenodd" clip-rule="evenodd" d="M13.1366 0.5C11.3944 0.5 9.98225 2.00905 9.98225 3.87187C9.98225 5.7347 11.3939 7.24327 13.1366 7.24327C14.8792 7.24327 16.2909 5.73517 16.2909 3.87187C16.2905 2.00857 14.8788 0.5 13.1366 0.5ZM13.1361 5.91925C12.0783 5.91925 11.2208 5.0027 11.2208 3.87139C11.2208 2.74056 12.0783 1.82353 13.1361 1.82353C14.1945 1.82353 15.0519 2.74056 15.0519 3.87139C15.0519 5.0027 14.1945 5.91925 13.1361 5.91925ZM22.2112 18.7922C20.5228 18.7922 19.1546 20.2552 19.1546 22.0591C19.1546 23.8644 20.5233 25.3269 22.2112 25.3269C23.8991 25.3269 25.2673 23.8639 25.2673 22.0591C25.2673 20.2548 23.8987 18.7922 22.2112 18.7922ZM22.2112 23.7537C21.3363 23.7537 20.6269 22.9953 20.6269 22.0601C20.6269 21.1238 21.3363 20.366 22.2112 20.366C23.0861 20.366 23.796 21.1238 23.796 22.0601C23.796 22.9953 23.0861 23.7537 22.2112 23.7537ZM7.47455 20.4153C7.47455 19.0467 8.51135 17.9384 9.79165 17.9384C11.0719 17.9384 12.1087 19.0472 12.1087 20.4153C12.1087 21.7835 11.0719 22.8922 9.79165 22.8922C8.51135 22.8922 7.47455 21.7835 7.47455 20.4153ZM10.5236 20.2682C10.5344 20.2668 10.5443 20.2671 10.5533 20.2692C10.5437 20.2685 10.5338 20.2682 10.5236 20.2682ZM19.9587 10.1718C19.9587 10.1718 22.9673 9.34197 26.0727 11.6501C26.155 11.719 26.2368 11.7864 26.3171 11.8525L26.3171 11.8525C27.1139 12.5085 27.7643 13.044 27.2131 13.7507L27.202 13.7618C26.8667 14.0944 26.5709 14.3879 25.5149 13.232C24.4718 12.4799 22.8233 11.3534 19.9587 11.8054C18.8425 12.0394 18.0174 12.3505 16.4398 13.9324C14.8626 15.5143 12.5088 16.6293 10.0096 16.3959C7.51044 16.1629 6.20054 15.1509 4.81755 13.8801C4.52651 13.465 4.52651 13.024 4.69603 12.7647C4.86554 12.5053 5.52071 12.246 5.88484 12.6347C6.24898 13.024 7.97144 14.58 9.66968 14.6836L9.67075 14.6836C11.3691 14.7872 13.0675 14.8907 15.3474 12.7383C17.5142 10.6956 18.6518 10.4519 19.7787 10.2105C19.8387 10.1977 19.8986 10.1849 19.9587 10.1718ZM29.9993 8.58313V27.0484C29.9993 27.0484 30.0567 28.5301 29.1369 29.6571C28.2163 30.7841 27.1006 31.1939 26.2512 31.1963C25.4019 31.1987 5.88215 31.1987 5.88215 31.1987C5.88215 31.1987 4.61441 31.2802 3.53187 30.3512C2.44889 29.4217 2 28.3719 2 27.0489V8.70345C2.00269 8.51698 2.05157 7.93503 2.58208 7.93503H2.88612C2.88612 7.93503 3.5534 7.90914 3.5534 8.73893V26.685C3.5534 26.685 3.44398 27.7224 4.00184 28.5133C4.56015 29.3043 5.21532 29.4471 5.59111 29.5118C6.06422 29.5382 26.0328 29.5382 26.0328 29.5382C26.0328 29.5382 26.8338 29.6293 27.6338 28.9414C28.3737 28.2281 28.4342 27.3983 28.4463 27.0738C28.4559 26.8227 28.451 15.4497 28.4488 10.3577C28.4485 9.69413 28.4483 9.13723 28.4481 8.72551V8.71592V8.66558C28.4495 8.48534 28.4921 7.93455 28.9804 7.93455H29.4809C29.6293 7.93982 29.9993 8.01077 29.9993 8.58313Z"/>
</mask>
<path fill-rule="evenodd" clip-rule="evenodd" d="M13.1366 0.5C11.3944 0.5 9.98225 2.00905 9.98225 3.87187C9.98225 5.7347 11.3939 7.24327 13.1366 7.24327C14.8792 7.24327 16.2909 5.73517 16.2909 3.87187C16.2905 2.00857 14.8788 0.5 13.1366 0.5ZM13.1361 5.91925C12.0783 5.91925 11.2208 5.0027 11.2208 3.87139C11.2208 2.74056 12.0783 1.82353 13.1361 1.82353C14.1945 1.82353 15.0519 2.74056 15.0519 3.87139C15.0519 5.0027 14.1945 5.91925 13.1361 5.91925ZM22.2112 18.7922C20.5228 18.7922 19.1546 20.2552 19.1546 22.0591C19.1546 23.8644 20.5233 25.3269 22.2112 25.3269C23.8991 25.3269 25.2673 23.8639 25.2673 22.0591C25.2673 20.2548 23.8987 18.7922 22.2112 18.7922ZM22.2112 23.7537C21.3363 23.7537 20.6269 22.9953 20.6269 22.0601C20.6269 21.1238 21.3363 20.366 22.2112 20.366C23.0861 20.366 23.796 21.1238 23.796 22.0601C23.796 22.9953 23.0861 23.7537 22.2112 23.7537ZM7.47455 20.4153C7.47455 19.0467 8.51135 17.9384 9.79165 17.9384C11.0719 17.9384 12.1087 19.0472 12.1087 20.4153C12.1087 21.7835 11.0719 22.8922 9.79165 22.8922C8.51135 22.8922 7.47455 21.7835 7.47455 20.4153ZM10.5236 20.2682C10.5344 20.2668 10.5443 20.2671 10.5533 20.2692C10.5437 20.2685 10.5338 20.2682 10.5236 20.2682ZM19.9587 10.1718C19.9587 10.1718 22.9673 9.34197 26.0727 11.6501C26.155 11.719 26.2368 11.7864 26.3171 11.8525L26.3171 11.8525C27.1139 12.5085 27.7643 13.044 27.2131 13.7507L27.202 13.7618C26.8667 14.0944 26.5709 14.3879 25.5149 13.232C24.4718 12.4799 22.8233 11.3534 19.9587 11.8054C18.8425 12.0394 18.0174 12.3505 16.4398 13.9324C14.8626 15.5143 12.5088 16.6293 10.0096 16.3959C7.51044 16.1629 6.20054 15.1509 4.81755 13.8801C4.52651 13.465 4.52651 13.024 4.69603 12.7647C4.86554 12.5053 5.52071 12.246 5.88484 12.6347C6.24898 13.024 7.97144 14.58 9.66968 14.6836L9.67075 14.6836C11.3691 14.7872 13.0675 14.8907 15.3474 12.7383C17.5142 10.6956 18.6518 10.4519 19.7787 10.2105C19.8387 10.1977 19.8986 10.1849 19.9587 10.1718ZM29.9993 8.58313V27.0484C29.9993 27.0484 30.0567 28.5301 29.1369 29.6571C28.2163 30.7841 27.1006 31.1939 26.2512 31.1963C25.4019 31.1987 5.88215 31.1987 5.88215 31.1987C5.88215 31.1987 4.61441 31.2802 3.53187 30.3512C2.44889 29.4217 2 28.3719 2 27.0489V8.70345C2.00269 8.51698 2.05157 7.93503 2.58208 7.93503H2.88612C2.88612 7.93503 3.5534 7.90914 3.5534 8.73893V26.685C3.5534 26.685 3.44398 27.7224 4.00184 28.5133C4.56015 29.3043 5.21532 29.4471 5.59111 29.5118C6.06422 29.5382 26.0328 29.5382 26.0328 29.5382C26.0328 29.5382 26.8338 29.6293 27.6338 28.9414C28.3737 28.2281 28.4342 27.3983 28.4463 27.0738C28.4559 26.8227 28.451 15.4497 28.4488 10.3577C28.4485 9.69413 28.4483 9.13723 28.4481 8.72551V8.71592V8.66558C28.4495 8.48534 28.4921 7.93455 28.9804 7.93455H29.4809C29.6293 7.93982 29.9993 8.01077 29.9993 8.58313Z" fill="white"/>
<path d="M16.2909 3.87187L36.2909 3.87187L36.2909 3.86706L16.2909 3.87187ZM10.5236 20.2682L7.97267 0.431509L10.4713 40.2681L10.5236 20.2682ZM10.5533 20.2692L9.08641 40.2154L15.2546 0.829644L10.5533 20.2692ZM26.0727 11.6501L38.9165 -3.68081L38.4704 -4.05452L38.0034 -4.40166L26.0727 11.6501ZM19.9587 10.1718L24.2214 29.7122L24.7524 29.5964L25.2763 29.4519L19.9587 10.1718ZM26.3171 11.8525L39.3895 -3.28398L39.2108 -3.43826L39.0286 -3.58828L26.3171 11.8525ZM26.3171 11.8525L13.2447 26.989L13.4231 27.1431L13.6051 27.2929L26.3171 11.8525ZM27.2131 13.7507L41.2975 27.9504L42.2014 27.0538L42.9843 26.05L27.2131 13.7507ZM27.202 13.7618L13.1176 -0.437849L13.1152 -0.435493L27.202 13.7618ZM25.5149 13.232L40.2804 -0.257926L38.8875 -1.78257L37.2124 -2.99042L25.5149 13.232ZM19.9587 11.8054L16.8413 -7.9501L16.3464 -7.87202L15.8562 -7.76926L19.9587 11.8054ZM16.4398 13.9324L2.27843 -0.190488L2.27642 -0.188471L16.4398 13.9324ZM10.0096 16.3959L11.8697 -3.51744L11.866 -3.5178L10.0096 16.3959ZM4.81755 13.8801L-11.5588 25.3612L-10.3129 27.1384L-8.71465 28.607L4.81755 13.8801ZM4.69603 12.7647L21.4371 23.7071L21.4371 23.7071L4.69603 12.7647ZM5.88484 12.6347L20.4903 -1.0284L20.4819 -1.03737L5.88484 12.6347ZM9.66968 14.6836L10.9022 -5.27842L10.8945 -5.27889L10.8868 -5.27936L9.66968 14.6836ZM9.67075 14.6836L8.43819 34.6456L8.44606 34.6461L8.45392 34.6466L9.67075 14.6836ZM15.3474 12.7383L1.62816 -1.81447L1.62288 -1.80949L1.61761 -1.80451L15.3474 12.7383ZM19.7787 10.2105L15.5901 -9.34592L15.59 -9.3459L19.7787 10.2105ZM29.9993 27.0484H9.9993V27.4356L10.0143 27.8226L29.9993 27.0484ZM29.1369 29.6571L44.6258 42.31L44.6318 42.3026L29.1369 29.6571ZM26.2512 31.1963L26.3076 51.1963L26.3077 51.1963L26.2512 31.1963ZM5.88215 31.1987V11.1987H5.23999L4.59915 11.2399L5.88215 31.1987ZM3.53187 30.3512L-9.49383 45.5279L-9.49305 45.5285L3.53187 30.3512ZM2 8.70345L-17.9979 8.4149L-18 8.55917V8.70345H2ZM2.88612 7.93503V27.935H3.27391L3.6614 27.92L2.88612 7.93503ZM3.5534 26.685L23.4431 28.783L23.5534 27.7369V26.685H3.5534ZM4.00184 28.5133L-12.342 40.0406L-12.3376 40.0468L4.00184 28.5133ZM5.59111 29.5118L2.19692 49.2217L3.33015 49.4169L4.47828 49.4809L5.59111 29.5118ZM26.0328 29.5382L28.2927 9.66629L27.1664 9.53821H26.0328V29.5382ZM27.6338 28.9414L40.6732 44.1063L41.1047 43.7352L41.5144 43.3403L27.6338 28.9414ZM28.4463 27.0738L8.46071 26.3159L8.46025 26.3281L28.4463 27.0738ZM28.4488 10.3577L8.44882 10.3663L8.44882 10.3663L28.4488 10.3577ZM28.4481 8.72551L8.44814 8.72551L8.44814 8.73301L28.4481 8.72551ZM28.4481 8.66558L8.4487 8.51638L8.44814 8.59098V8.66558H28.4481ZM29.4809 7.93455L30.1909 -12.0528L29.836 -12.0655H29.4809V7.93455ZM29.9822 3.87187C29.9822 11.7793 23.6737 20.5 13.1366 20.5V-19.5C-0.884969 -19.5 -10.0178 -7.76124 -10.0178 3.87187H29.9822ZM13.1366 -12.7567C23.6715 -12.7567 29.9822 -4.03751 29.9822 3.87187H-10.0178C-10.0178 15.5069 -0.883628 27.2433 13.1366 27.2433V-12.7567ZM-3.70909 3.87187C-3.70909 -4.03893 2.60343 -12.7567 13.1366 -12.7567V27.2433C27.155 27.2433 36.2909 15.5093 36.2909 3.87187H-3.70909ZM13.1366 20.5C2.59706 20.5 -3.70719 11.7772 -3.70909 3.87668L36.2909 3.86706C36.2881 -7.76011 27.1605 -19.5 13.1366 -19.5V20.5ZM-8.77916 3.87139C-8.77916 14.7679 -0.20583 25.9193 13.1361 25.9193V-14.0807C24.3624 -14.0807 31.2208 -4.76253 31.2208 3.87139H-8.77916ZM13.1361 -18.1765C-0.208768 -18.1765 -8.77916 -7.02152 -8.77916 3.87139H31.2208C31.2208 12.5027 24.3653 21.8235 13.1361 21.8235V-18.1765ZM35.0519 3.87139C35.0519 -7.02466 26.4785 -18.1765 13.1361 -18.1765V21.8235C1.91036 21.8235 -4.94813 12.5058 -4.94813 3.87139H35.0519ZM13.1361 25.9193C26.4756 25.9193 35.0519 14.7711 35.0519 3.87139H-4.94813C-4.94813 -4.76567 1.9133 -14.0807 13.1361 -14.0807V25.9193ZM39.1546 22.0591C39.1546 30.0236 32.804 38.7922 22.2112 38.7922V-1.2078C8.24171 -1.2078 -0.84536 10.4868 -0.84536 22.0591H39.1546ZM22.2112 5.32694C32.8044 5.32694 39.1546 14.096 39.1546 22.0591H-0.84536C-0.84536 33.6328 8.24215 45.3269 22.2112 45.3269V5.32694ZM5.26734 22.0591C5.26734 14.1015 11.6125 5.32694 22.2112 5.32694V45.3269C36.1858 45.3269 45.2673 33.6264 45.2673 22.0591H5.26734ZM22.2112 38.7922C11.6194 38.7922 5.26734 30.0251 5.26734 22.0591H45.2673C45.2673 10.4844 36.178 -1.2078 22.2112 -1.2078V38.7922ZM0.626871 22.0601C0.626871 32.7637 9.05522 43.7537 22.2112 43.7537V3.75366C33.6174 3.75366 40.6269 13.2269 40.6269 22.0601H0.626871ZM22.2112 0.365967C9.05518 0.365967 0.626871 11.3555 0.626871 22.0601H40.6269C40.6269 30.8922 33.6174 40.366 22.2112 40.366V0.365967ZM43.796 22.0601C43.796 11.3479 35.3602 0.365967 22.2112 0.365967V40.366C10.812 40.366 3.796 30.8998 3.796 22.0601H43.796ZM22.2112 43.7537C35.3601 43.7537 43.796 32.7713 43.796 22.0601H3.796C3.796 13.2193 10.8121 3.75366 22.2112 3.75366V43.7537ZM9.79165 -2.06155C-3.76979 -2.06155 -12.5254 9.27836 -12.5254 20.4153H27.4746C27.4746 28.8151 20.7925 37.9384 9.79165 37.9384V-2.06155ZM32.1087 20.4153C32.1087 9.28144 23.3555 -2.06155 9.79165 -2.06155V37.9384C-1.21163 37.9384 -7.89126 28.813 -7.89126 20.4153H32.1087ZM9.79165 42.8922C23.3555 42.8922 32.1087 31.5492 32.1087 20.4153H-7.89126C-7.89126 12.0177 -1.21163 2.89224 9.79165 2.89224V42.8922ZM-12.5254 20.4153C-12.5254 31.5492 -3.77224 42.8922 9.79165 42.8922V2.89224C20.7949 2.89224 27.4746 12.0177 27.4746 20.4153H-12.5254ZM13.0746 40.1048C11.2247 40.3427 8.70952 40.3999 5.85203 39.7088L15.2546 0.829644C12.3791 0.134237 9.84412 0.190843 7.97267 0.431509L13.0746 40.1048ZM12.0202 0.323112C11.4994 0.284812 11.0157 0.269377 10.5759 0.268226L10.4713 40.2681C10.0519 40.267 9.58806 40.2523 9.08641 40.2154L12.0202 0.323112ZM38.0034 -4.40166C32.8701 -8.21705 27.5117 -9.60266 23.2695 -9.90426C21.1973 -10.0516 19.3959 -9.94403 17.9727 -9.76438C17.2553 -9.67383 16.615 -9.56257 16.062 -9.44873C15.7847 -9.39167 15.5273 -9.33351 15.2907 -9.27629C15.1723 -9.24766 15.059 -9.2192 14.9508 -9.19116C14.8966 -9.17713 14.8438 -9.1632 14.7922 -9.1494C14.7664 -9.1425 14.7409 -9.13562 14.7157 -9.12879C14.7031 -9.12537 14.6906 -9.12196 14.6782 -9.11855C14.672 -9.11685 14.6627 -9.11431 14.6596 -9.11346C14.6504 -9.11092 14.6411 -9.10837 19.9587 10.1718C25.2763 29.4519 25.2671 29.4544 25.2579 29.457C25.2548 29.4578 25.2456 29.4603 25.2395 29.462C25.2273 29.4653 25.215 29.4687 25.2028 29.472C25.1784 29.4786 25.154 29.4852 25.1296 29.4917C25.081 29.5048 25.0324 29.5175 24.9841 29.5301C24.8874 29.5551 24.7914 29.5792 24.6958 29.6023C24.5048 29.6485 24.315 29.6911 24.1261 29.7299C23.7497 29.8074 23.3688 29.8719 22.982 29.9207C22.2199 30.0169 21.3647 30.0613 20.4328 29.995C18.4713 29.8556 16.17 29.2091 14.1421 27.7019L38.0034 -4.40166ZM39.0286 -3.58828C38.9861 -3.62331 38.9622 -3.64296 38.9411 -3.66045C38.9217 -3.67646 38.9152 -3.68188 38.9165 -3.68081L13.229 26.9811C13.3875 27.1139 13.5348 27.235 13.6056 27.2932L39.0286 -3.58828ZM39.3895 -3.28393L39.3895 -3.28398L13.2447 26.9889L13.2447 26.989L39.3895 -3.28393ZM42.9843 26.05C45.0921 23.3471 47.2731 19.1639 47.4112 13.759C47.5461 8.47899 45.6653 4.43952 44.1511 2.05647C42.7302 -0.179631 41.1848 -1.67128 40.5192 -2.29274C39.8122 -2.95281 39.1102 -3.52109 39.0292 -3.58782L13.6051 27.2929C13.9225 27.5541 13.6006 27.2988 13.2224 26.9457C12.8855 26.6312 11.6177 25.4406 10.3901 23.5087C9.0692 21.4298 7.29749 17.6978 7.42422 12.7374C7.55415 7.65218 9.60977 3.80091 11.442 1.45147L42.9843 26.05ZM41.2864 27.9614L41.2975 27.9504L13.1287 -0.448922L13.1176 -0.437848L41.2864 27.9614ZM10.7494 26.722C11.5053 27.5494 12.7828 28.8581 14.5399 30.1152C16.2276 31.3226 19.5587 33.3543 24.2629 33.9147C29.6557 34.5571 34.2321 32.9814 37.4274 31.0151C38.8145 30.1614 39.8208 29.3136 40.3756 28.8196C40.6659 28.5612 40.8964 28.3417 41.0378 28.2051C41.1695 28.0778 41.2843 27.9635 41.2887 27.9591L13.1152 -0.435493C11.6379 1.03026 18.2282 -7.08706 28.9946 -5.80448C33.4509 -5.2736 36.4891 -3.36449 37.8138 -2.41674C39.2079 -1.41936 40.0525 -0.507421 40.2804 -0.257926L10.7494 26.722ZM23.0762 31.561C21.1784 31.8605 18.9404 31.6984 16.7395 30.9185C14.7914 30.2282 13.529 29.2465 13.8174 29.4545L37.2124 -2.99042C34.6973 -4.80397 27.5521 -9.64029 16.8413 -7.9501L23.0762 31.561ZM30.6012 28.0553C30.7101 27.9461 29.838 28.863 28.1609 29.8043C26.1865 30.9124 24.445 31.2997 24.0613 31.3801L15.8562 -7.76926C14.3563 -7.45491 11.644 -6.79503 8.58372 -5.07744C5.82054 -3.52663 3.74713 -1.66319 2.27843 -0.190488L30.6012 28.0553ZM8.14945 36.3092C17.7093 37.2022 25.6825 32.9887 30.6032 28.0533L2.27642 -0.188471C4.04274 -1.96011 7.30823 -3.94354 11.8697 -3.51744L8.14945 36.3092ZM-8.71465 28.607C-5.93999 31.1566 -0.653496 35.4886 8.15324 36.3095L11.866 -3.5178C13.1454 -3.39852 14.8295 -2.97623 16.5328 -2.0521C17.9716 -1.27145 18.7782 -0.452995 18.3498 -0.846688L-8.71465 28.607ZM-12.045 1.82221C-17.7255 10.5129 -15.3538 19.9481 -11.5588 25.3612L21.1939 2.39911C24.4069 6.98197 26.7785 15.5351 21.4371 23.7071L-12.045 1.82221ZM20.4819 -1.03737C13.9524 -8.00857 5.57481 -8.0595 1.08669 -7.11211C-2.5583 -6.34269 -8.20752 -4.04889 -12.045 1.82224L21.4371 23.7071C19.3176 26.9498 16.7593 28.7874 15.2111 29.7186C13.4493 30.7784 11.4774 31.576 9.34821 32.0254C5.32108 32.8755 -2.54684 32.8893 -8.71219 26.3069L20.4819 -1.03737ZM10.8868 -5.27936C13.2235 -5.13689 14.9867 -4.54622 16.0027 -4.12949C17.0525 -3.6989 17.8004 -3.24902 18.2303 -2.96764C18.6817 -2.67215 19.0328 -2.39742 19.303 -2.16904C19.5148 -1.98997 19.9335 -1.62355 20.4903 -1.0284L-8.72058 26.2979C-7.49738 27.6055 -5.75941 29.1368 -3.67636 30.5002C-1.87708 31.678 2.48079 34.2824 8.45251 34.6465L10.8868 -5.27936ZM10.9033 -5.27835L10.9022 -5.27842L8.43713 34.6455L8.43819 34.6456L10.9033 -5.27835ZM1.61761 -1.80451C2.52577 -2.6619 4.48806 -4.10865 7.44516 -4.84714C9.92308 -5.46596 12.0239 -5.21005 10.8876 -5.27932L8.45392 34.6466C9.01594 34.6808 12.8152 35.0403 17.1369 33.961C21.9377 32.7621 25.8892 30.2909 29.0772 27.2811L1.61761 -1.80451ZM15.59 -9.3459C14.8898 -9.19592 12.1714 -8.66357 9.04231 -7.10638C6.0788 -5.63157 3.65865 -3.72866 1.62816 -1.81447L29.0666 27.2911C29.2029 27.1625 28.435 27.9223 26.8637 28.7042C26.0581 29.1051 25.2795 29.3937 24.6043 29.594C24.052 29.7578 23.6035 29.8449 23.9675 29.767L15.59 -9.3459ZM15.696 -9.3687C15.6791 -9.365 15.656 -9.36004 15.5901 -9.34592L23.9674 29.767C24.0214 29.7554 24.1182 29.7347 24.2214 29.7122L15.696 -9.3687ZM49.9993 27.0484V8.58313H9.9993V27.0484H49.9993ZM44.6318 42.3026C47.8724 38.3319 49.0589 34.2198 49.5367 31.7918C49.7945 30.4817 49.9098 29.3359 49.961 28.4443C49.9871 27.9904 49.9978 27.5798 49.9997 27.2205C50.0006 27.0401 49.9994 26.8708 49.9966 26.7133C49.9952 26.6345 49.9935 26.5585 49.9914 26.4853C49.9903 26.4487 49.9892 26.4128 49.988 26.3777C49.9875 26.3601 49.9868 26.3426 49.9862 26.3254C49.9859 26.3168 49.9856 26.3082 49.9853 26.2997C49.9851 26.2954 49.9849 26.289 49.9848 26.2869C49.9846 26.2805 49.9843 26.2742 29.9993 27.0484C10.0143 27.8226 10.014 27.8162 10.0138 27.8099C10.0137 27.8078 10.0135 27.8014 10.0133 27.7972C10.013 27.7888 10.0127 27.7803 10.0124 27.7719C10.0118 27.755 10.0112 27.7381 10.0106 27.7213C10.0095 27.6875 10.0084 27.6538 10.0075 27.62C10.0056 27.5525 10.004 27.4849 10.0028 27.4173C10.0004 27.282 9.99952 27.1456 10.0002 27.008C10.0017 26.7342 10.0097 26.4481 10.0268 26.1507C10.06 25.5722 10.1322 24.8672 10.2894 24.0684C10.5659 22.6631 11.3213 19.8553 13.6421 17.0116L44.6318 42.3026ZM26.3077 51.1963C33.4027 51.1762 40.0878 47.8651 44.6258 42.31L13.6481 17.0042C16.3448 13.7031 20.7984 11.2117 26.1948 11.1964L26.3077 51.1963ZM5.88215 31.1987C5.88215 51.1987 5.88223 51.1987 5.88238 51.1987C5.88253 51.1987 5.88275 51.1987 5.88305 51.1987C5.88364 51.1987 5.88453 51.1987 5.88572 51.1987C5.88808 51.1987 5.89163 51.1987 5.89632 51.1987C5.90571 51.1987 5.91973 51.1987 5.93821 51.1987C5.97518 51.1987 6.03005 51.1987 6.10166 51.1987C6.24486 51.1987 6.45499 51.1987 6.72272 51.1987C7.25819 51.1987 8.02408 51.1987 8.94579 51.1987C10.7892 51.1987 13.256 51.1986 15.7494 51.1984C20.7046 51.1981 25.8463 51.1976 26.3076 51.1963L26.1948 11.1964C26.1944 11.1964 26.195 11.1964 26.1943 11.1964C26.1935 11.1964 26.1936 11.1964 26.1926 11.1964C26.1912 11.1964 26.1891 11.1964 26.1865 11.1964C26.1812 11.1965 26.1742 11.1965 26.1653 11.1965C26.1474 11.1965 26.1242 11.1965 26.0953 11.1966C26.0376 11.1966 25.962 11.1967 25.8686 11.1968C25.6821 11.1969 25.4314 11.197 25.1247 11.1971C24.5117 11.1974 23.6811 11.1976 22.7068 11.1977C20.7585 11.1981 18.2398 11.1983 15.747 11.1984C13.2543 11.1986 10.7881 11.1987 8.94497 11.1987C8.02344 11.1987 7.25771 11.1987 6.72237 11.1987C6.45471 11.1987 6.24464 11.1987 6.10149 11.1987C6.02992 11.1987 5.97508 11.1987 5.93813 11.1987C5.91966 11.1987 5.90566 11.1987 5.89628 11.1987C5.89159 11.1987 5.88806 11.1987 5.8857 11.1987C5.88452 11.1987 5.88363 11.1987 5.88304 11.1987C5.88274 11.1987 5.88252 11.1987 5.88237 11.1987C5.88222 11.1987 5.88215 11.1987 5.88215 31.1987ZM-9.49305 45.5285C-5.76186 48.7306 -1.81907 50.099 0.970286 50.6896C2.38875 50.9899 3.64524 51.1202 4.65555 51.1714C5.16723 51.1973 5.63471 51.2038 6.0506 51.1992C6.25918 51.1968 6.45662 51.1916 6.64211 51.1844C6.73493 51.1808 6.82496 51.1767 6.9121 51.1722C6.95568 51.17 6.99856 51.1676 7.04073 51.1652C7.06182 51.1639 7.08273 51.1627 7.10347 51.1614C7.11383 51.1608 7.12416 51.1601 7.13444 51.1595C7.13958 51.1592 7.14726 51.1587 7.14983 51.1585C7.15749 51.158 7.16515 51.1575 5.88215 31.1987C4.59915 11.2399 4.6068 11.2394 4.61445 11.239C4.61699 11.2388 4.62465 11.2383 4.62975 11.238C4.63995 11.2374 4.65016 11.2367 4.66037 11.2361C4.6808 11.2348 4.70125 11.2336 4.72173 11.2324C4.76267 11.2301 4.80372 11.2278 4.84486 11.2257C4.92714 11.2214 5.00992 11.2177 5.09319 11.2144C5.25958 11.208 5.42873 11.2036 5.60053 11.2017C5.94286 11.1978 6.30284 11.2035 6.67876 11.2226C7.41753 11.26 8.28943 11.3525 9.25564 11.5571C11.1405 11.9562 13.9081 12.9009 16.5568 15.1739L-9.49305 45.5285ZM-18 27.0489C-18 34.0981 -15.0849 40.7292 -9.49383 45.5279L16.5576 15.1746C17.8578 16.2905 19.422 18.0555 20.5632 20.5629C21.702 23.065 22 25.3848 22 27.0489H-18ZM-18 8.70345V27.0489H22V8.70345H-18ZM2.58208 -12.065C-1.45406 -12.065 -5.73562 -10.8735 -9.47596 -8.16021C-12.9974 -5.60571 -14.9656 -2.48769 -16.0265 -0.216986C-17.9243 3.84469 -17.9843 7.46931 -17.9979 8.4149L21.9979 8.99201C21.987 9.75112 21.9528 12.9915 20.2128 16.7156C19.2307 18.8175 17.3744 21.7784 14.0114 24.218C10.4295 26.8163 6.35296 27.935 2.58208 27.935V-12.065ZM2.88612 -12.065H2.58208V27.935H2.88612V-12.065ZM23.5534 8.73893C23.5534 1.85297 20.1433 -5.25867 13.2925 -9.25247C10.5844 -10.8312 8.04779 -11.4859 6.31282 -11.7782C5.4078 -11.9306 4.59693 -12.0053 3.91415 -12.0395C3.56888 -12.0568 3.24547 -12.0642 2.94677 -12.065C2.79705 -12.0654 2.65248 -12.0641 2.51337 -12.0615C2.44377 -12.0602 2.37543 -12.0586 2.30836 -12.0566C2.27483 -12.0557 2.2416 -12.0546 2.20868 -12.0535C2.19222 -12.0529 2.17583 -12.0524 2.15953 -12.0518C2.15138 -12.0515 2.13919 -12.051 2.13512 -12.0509C2.12298 -12.0504 2.11083 -12.0499 2.88612 7.93503C3.6614 27.92 3.64927 27.9205 3.63713 27.9209C3.63308 27.9211 3.62089 27.9215 3.61277 27.9218C3.59651 27.9224 3.58018 27.923 3.5638 27.9235C3.53105 27.9247 3.49806 27.9257 3.46484 27.9267C3.39842 27.9286 3.33103 27.9302 3.2627 27.9315C3.12611 27.934 2.98529 27.9353 2.84046 27.9349C2.55153 27.9341 2.24246 27.9269 1.91543 27.9106C1.26914 27.8782 0.510402 27.808 -0.332053 27.6661C-1.94191 27.3949 -4.31171 26.7856 -6.85303 25.3041C-9.55004 23.7318 -12.2199 21.2905 -14.0937 17.8678C-15.9295 14.5148 -16.4466 11.2373 -16.4466 8.73893H23.5534ZM23.5534 26.685V8.73893H-16.4466V26.685H23.5534ZM20.3457 16.986C22.6974 20.3204 23.2585 23.5036 23.4299 24.9529C23.5312 25.809 23.5513 26.5513 23.543 27.1407C23.5388 27.4444 23.5266 27.7316 23.5095 28.0006C23.5009 28.1359 23.4909 28.2685 23.4798 28.3983C23.4742 28.4634 23.4684 28.5279 23.4623 28.5919C23.4592 28.624 23.4561 28.6559 23.4529 28.6877C23.4513 28.7036 23.4497 28.7195 23.448 28.7354C23.4472 28.7433 23.4464 28.7513 23.4456 28.7592C23.4451 28.7632 23.4445 28.7691 23.4443 28.7711C23.4437 28.777 23.4431 28.783 3.5534 26.685C-16.3363 24.5871 -16.3369 24.593 -16.3375 24.599C-16.3377 24.601 -16.3383 24.6069 -16.3388 24.6109C-16.3396 24.6189 -16.3404 24.6269 -16.3413 24.635C-16.3429 24.6511 -16.3446 24.6674 -16.3462 24.6838C-16.3495 24.7167 -16.3528 24.7501 -16.3561 24.7841C-16.3626 24.8521 -16.369 24.9226 -16.3752 24.9954C-16.3876 25.1408 -16.3994 25.2965 -16.4099 25.4616C-16.4308 25.7905 -16.4472 26.1649 -16.453 26.5782C-16.4644 27.3869 -16.4367 28.4379 -16.2931 29.6523C-16.0369 31.8179 -15.2516 35.9153 -12.342 40.0406L20.3457 16.986ZM8.9853 9.80197C9.41965 9.87676 11.516 10.2297 13.9307 11.4577C16.4993 12.7639 18.7111 14.6703 20.3413 16.9798L-12.3376 40.0468C-7.34884 47.1144 -0.473187 48.7619 2.19692 49.2217L8.9853 9.80197ZM26.0328 29.5382C26.0328 9.53821 26.0328 9.53821 26.0326 9.53821C26.0325 9.53821 26.0323 9.53821 26.032 9.53821C26.0314 9.53821 26.0305 9.53821 26.0293 9.53821C26.0269 9.53821 26.0233 9.53821 26.0186 9.53821C26.009 9.53821 25.9948 9.53821 25.976 9.53821C25.9383 9.53821 25.8824 9.53821 25.8093 9.53821C25.6633 9.5382 25.4489 9.53819 25.1758 9.53816C24.6295 9.53811 23.8485 9.53801 22.9097 9.5378C21.0319 9.53739 18.5242 9.53657 16.0024 9.53492C13.4789 9.53328 10.9486 9.53081 9.02297 9.52713C8.058 9.52528 7.25795 9.52315 6.69065 9.52073C5.62579 9.51619 6.08751 9.50848 6.70395 9.54283L4.47828 49.4809C5.44668 49.5348 11.5924 49.5321 15.9763 49.5349C18.5059 49.5366 21.0199 49.5374 22.901 49.5378C23.8416 49.538 24.6244 49.5381 25.172 49.5382C25.4458 49.5382 25.6609 49.5382 25.8076 49.5382C25.8809 49.5382 25.9372 49.5382 25.9751 49.5382C25.9941 49.5382 26.0085 49.5382 26.0182 49.5382C26.023 49.5382 26.0266 49.5382 26.0291 49.5382C26.0303 49.5382 26.0313 49.5382 26.0319 49.5382C26.0322 49.5382 26.0324 49.5382 26.0326 49.5382C26.0327 49.5382 26.0328 49.5382 26.0328 29.5382ZM14.5943 13.7765C17.1377 11.5897 19.9575 10.4438 22.4125 9.9269C23.6062 9.67555 24.7057 9.57229 25.6661 9.54806C26.1499 9.53585 26.6107 9.54339 27.0453 9.56464C27.2631 9.57528 27.4759 9.58945 27.6834 9.60654C27.7872 9.61509 27.8899 9.62438 27.9914 9.63436C28.0422 9.63934 28.0926 9.6445 28.1428 9.64983C28.1679 9.65249 28.193 9.6552 28.2179 9.65794C28.2304 9.65931 28.2429 9.66069 28.2554 9.66209C28.2616 9.66278 28.2709 9.66383 28.274 9.66418C28.2833 9.66524 28.2927 9.66629 26.0328 29.5382C23.773 49.4101 23.7823 49.4112 23.7917 49.4122C23.7948 49.4126 23.8041 49.4136 23.8104 49.4143C23.8229 49.4157 23.8354 49.4171 23.848 49.4185C23.8732 49.4213 23.8985 49.424 23.924 49.4267C23.975 49.4321 24.0266 49.4374 24.0789 49.4426C24.1835 49.4528 24.2907 49.4626 24.4006 49.4716C24.6202 49.4897 24.851 49.5051 25.0923 49.5169C25.5739 49.5405 26.1035 49.5498 26.6749 49.5353C27.8104 49.5067 29.1602 49.3832 30.6541 49.0686C33.7095 48.4253 37.3299 46.981 40.6732 44.1063L14.5943 13.7765ZM8.46025 26.3281C8.51069 24.9761 8.8448 19.2742 13.7531 14.5425L41.5144 43.3403C47.9026 37.182 48.3578 29.8206 48.4324 27.8194L8.46025 26.3281ZM8.44882 10.3663C8.44991 12.9129 8.45167 17.0257 8.45197 20.5328C8.45212 22.2871 8.4519 23.8849 8.45106 25.0577C8.45064 25.6455 8.45006 26.118 8.44933 26.4474C8.4478 27.129 8.44409 26.7542 8.46071 26.3159L48.432 27.8317C48.4609 27.0699 48.4508 14.9482 48.4488 10.3491L8.44882 10.3663ZM8.44814 8.73301C8.4483 9.1454 8.44853 9.70292 8.44882 10.3663L48.4488 10.3491C48.4485 9.68534 48.4483 9.12907 48.4481 8.718L8.44814 8.73301ZM8.44814 8.71592V8.72551H48.4481V8.71592H8.44814ZM8.44814 8.66558V8.71592H48.4481V8.66558H8.44814ZM28.9804 -12.0655C24.8255 -12.0655 20.4591 -10.799 16.7004 -7.98333C13.1902 -5.35373 11.2846 -2.18523 10.283 0.0479411C8.48622 4.05416 8.45552 7.6023 8.4487 8.51638L48.4476 8.81479C48.4421 9.54863 48.4334 12.7313 46.7803 16.417C45.8506 18.4899 44.0473 21.5095 40.6824 24.0302C37.0692 26.737 32.8912 27.9345 28.9804 27.9345V-12.0655ZM29.4809 -12.0655H28.9804V27.9345H29.4809V-12.0655ZM49.9993 8.58313C49.9993 3.61602 48.1419 -2.83164 42.3838 -7.49544C37.4952 -11.455 32.357 -11.9759 30.1909 -12.0528L28.7709 27.9219C26.7532 27.8503 21.8742 27.3674 17.2078 23.5878C11.6717 19.1039 9.9993 12.9779 9.9993 8.58313H49.9993Z" fill="white" mask="url(#path-1-inside-1_49546_455)"/>
</svg>
