<svg width="32" height="32" viewBox="0 0 32 32" fill="none" xmlns="http://www.w3.org/2000/svg">
<path fill-rule="evenodd" clip-rule="evenodd" d="M4.5 1C5.05228 1 5.5 1.44772 5.5 2V7.5C5.5 8.05686 5.69203 8.81518 6.20088 9.41656C6.55978 9.84073 7.11806 10.2374 8 10.4097V2C8 1.44772 8.44772 1 9 1C9.55228 1 10 1.44772 10 2V10.4097C10.8819 10.2373 11.4402 9.84071 11.7991 9.41656C12.308 8.81518 12.5 8.05686 12.5 7.5V2C12.5 1.44772 12.9477 1 13.5 1C14.0523 1 14.5 1.44772 14.5 2V7.5C14.5 8.44314 14.192 9.68482 13.3259 10.7084C12.5863 11.5825 11.4925 12.2344 10 12.4352V30C10 30.5523 9.55228 31 9 31C8.44772 31 8 30.5523 8 30V12.4353C6.50745 12.2344 5.41369 11.5825 4.6741 10.7084C3.80797 9.68482 3.5 8.44314 3.5 7.5V2C3.5 1.44772 3.94772 1 4.5 1ZM22.7071 1.29292C22.4211 1.00692 21.991 0.921369 21.6173 1.07615C21.2436 1.23093 21 1.59557 21 2.00003V30C21 30.5523 21.4477 31 22 31C22.5523 31 23 30.5523 23 30V21H26.5C27.0523 21 27.5 20.5523 27.5 20C27.5 14.5081 26.7373 10.2804 25.7659 7.21082C24.8038 4.17065 23.6156 2.20142 22.7071 1.29292ZM25.4911 19H23V5.51895C23.2885 6.1715 23.5807 6.93457 23.8591 7.81424C24.7051 10.4875 25.4053 14.1836 25.4911 19Z" fill="white"/>
</svg>
