<svg width="34" height="38" fill="none" xmlns="http://www.w3.org/2000/svg"><g clip-path="url(#a)"><path d="M6.19388 20.9349v-2.2835a147.62709 147.62709 0 0 1 20.58162-1.3438c0 .6063 0 1.2226-.0612 1.8389 1.9567-.8598 4.013-1.4774 6.1224-1.8389-1.3444-3.4433-3.7941-6.354-6.9723-8.28413-3.1782-1.93015-6.9089-2.77292-10.6181-2.39865-3.7091.37428-7.19141 1.94485-9.91108 4.47018C2.61556 13.6202.80915 16.9603.19388 20.6014l6 .3335ZM27.7959 24.4813c-1.1837 1.2932-1.4183 1.2124-1.4183 3.4857v9.2752c2.3393-1.5297 4.2597-3.6091 5.5898-6.0527 1.33-2.4435 2.0283-5.1752 2.0326-7.951-.0135-1.0516-.1227-2.1-.3265-3.1321-2.1141 1.2422-4.085 2.7092-5.8776 4.3749ZM6.4898 25.9867s-3.86735-1.4549-5.29592-1.849A8.79848 8.79848 0 0 0 0 23.8548c.1106 2.9159.9853 5.7532 2.53815 8.2331 1.55286 2.48 3.73048 4.5174 6.31899 5.9121L6.4898 25.9867Z" fill="#FDC305"/><path d="M26.8265 17.2975c.0415-5.5786-.4367-11.14911-1.4285-16.64076 0 0-.1429-1.30338-.9082-.24249-.6011 1.26108-1.0136 2.6021-1.2245 3.98086a72.48403 72.48403 0 0 0-13.0306.34352C9.42857 2.02074 8.0102.75778 7.32653 1.01037c-.68367.25259-.73469 3.34432-.73469 3.34432L6.2551 18.6009a147.57098 147.57098 0 0 1 20.5714-1.3034Z" fill="#F06351"/><path d="M12.6633 14.1452c0-.091 1.0204.687 1.4387.9295.4184.2425.6225.4244.6225.5961 0 .1718-.2755.3436-.6429.3436-.3673 0-.9285-.1213-1.0204-.2728h1.2551c-.6217-.4553-1.1778-.9924-1.653-1.5964ZM20.2959 14.2563l-1.1122 1.3438c0 .0606-.1735.3536.1836.3031a7.56202 7.56202 0 0 0 1.2449-.293c.1123 0 .0715-.192-.1122-.1718-.1837.0203-.7041.0506-1.0204.1112l.8571-1.2731s.0715-.1313-.0408-.0202ZM17.0918 20.4095c.473-.2064.864-.5615 1.1123-1.0104.2857-.6567 0-.9194-.449-1.0104-.6144-.111-1.2485.0117-1.7755.3436-.398.3637-.3469.7274-.051 1.0103.3584.269.7492.493 1.1632.6669Z" fill="#000"/><path d="M16.6837 21.6724c-.1144.2309-.2739.437-.4694.6062-.2906.2316-.6479.366-1.0204.384-.5369.0424-1.0708-.1122-1.5-.4345a2.34007 2.34007 0 0 1-.5408-.4445 1.09005 1.09005 0 0 0-.3674-.2627s.7653 4.1425 2.6225 4.7992c1.8571.6568 2.1836-.7577 2.2449-1.1417.0613-1.1466-.2305-2.2847-.8368-3.2635-.0204-.3132-.0306-.1111-.1326-.2425Z" fill="#F06351"/><path d="M15.0102 22.8242c-.4742-.0659-.9297-.2272-1.3386-.4739-.4089-.2468-.7624-.5737-1.0389-.9608a.14143.14143 0 0 1-.0318-.0462.1416.1416 0 0 1-.0111-.0548c0-.0188.0038-.0375.0111-.0548a.14184.14184 0 0 1 .0318-.0463.14287.14287 0 0 1 .0467-.0314.1436.1436 0 0 1 .0553-.011c.019 0 .0378.0037.0553.011.0176.0073.0334.018.0467.0314.5151.7015 1.2888 1.1734 2.1531 1.3135.3384-.0252.6659-.13.9552-.3057.2893-.1758.532-.4173.7081-.7046l.1428-.192.1021.2122s.3775.7678 1.0204.8083c.6428.0404 1.0714-.4143 1.6428-1.2933a.14237.14237 0 0 1 .0467-.0314.1437.1437 0 0 1 .1107 0 .14237.14237 0 0 1 .0467.0314.1514.1514 0 0 1 .0661.091.15017.15017 0 0 1-.0151.1111c-.653 1.0103-1.2959 1.4549-1.9183 1.4145a1.59144 1.59144 0 0 1-.6606-.2539c-.1979-.133-.3629-.3088-.4823-.514-.2007.2773-.4616.5066-.7636.671a2.32282 2.32282 0 0 1-.9813.2787Z" fill="#000"/><path d="M26.7755 19.1162A59.51148 59.51148 0 0 0 21.602 24.36c-1.6034 1.8451-3.4144 3.5027-5.3979 4.9407-.2245-.5355-1.6531-1.5256-1.6531-1.5256s-3.1939-2.1622-5.28569-3.8597a34.67074 34.67074 0 0 1-3.19388-3.0311l-2.04082-.1111c2.94916 4.2492 7.26549 7.3833 12.24489 8.8913.8776-.1415 3.3367-1.8793 5.1735-3.2939 2.1621-1.8369 4.1878-3.8258 6.0612-5.951.5128-.5951.9074-1.2807 1.1633-2.0208-1.1225.3941-1.898.7174-1.898.7174Z" fill="#F06351"/></g><defs><clipPath id="a"><path fill="#fff" d="M0 0h34v38H0z"/></clipPath></defs></svg>