<svg width="175" height="50" viewBox="0 0 175 50" xmlns="http://www.w3.org/2000/svg">
<path d="M51.5819 19.0509C50.0969 15.4472 47.7053 12.3007 44.6456 9.92484C41.5858 7.54897 37.9646 6.02673 34.143 5.50983C30.3214 4.99293 26.4328 5.49942 22.8646 6.97883C19.2965 8.45823 16.1735 10.8589 13.8068 13.9415C11.4402 17.0242 9.9125 20.6812 9.37609 24.5481C8.83968 28.415 9.31325 32.3568 10.7496 35.9806C12.186 39.6044 14.535 42.7836 17.5625 45.2015C20.59 47.6194 24.1903 49.1915 28.0046 49.7611C27.505 47.9377 26.9967 45.9223 26.5488 43.7848C27.8519 44.641 29.2235 45.3852 30.6492 46.0096V46.0096C30.6492 46.0096 30.7526 47.8941 30.8904 49.9967C32.4308 50.0236 33.9698 49.8862 35.4818 49.5866C35.4427 49.3674 35.4427 49.1428 35.4818 48.9236C35.7316 47.2921 36.4208 44.3519 36.5586 42.4587C37.552 41.5176 38.3948 40.4256 39.0567 39.2219V39.2219L39.005 39.6058C38.5313 43.3224 37.5406 47.2921 36.9376 48.3914C36.7424 48.7553 36.5021 49.0924 36.2226 49.3947C39.3408 48.6538 42.2626 47.235 44.7855 45.2366C47.3083 43.2381 49.3718 40.7079 50.8329 37.8213C52.2941 34.9347 53.1179 31.7607 53.2472 28.5196C53.3765 25.2784 52.8083 22.0475 51.5819 19.0509V19.0509ZM50.3156 22.3575C49.9366 22.7326 49.1527 22.9856 49.0235 21.8514C48.8942 20.7172 48.8598 19.9233 48.8598 19.9233C48.8598 19.9233 47.1972 16.9308 46.577 16.8959C45.9568 16.861 41.5549 19.9233 40.3919 21.2582C39.3841 22.3836 39.1859 22.3051 39.1859 24.2856C39.1859 25.7775 39.3755 31.4135 39.2721 35.7234L32.2514 37.6166C30.0448 38.258 27.8007 38.7592 25.5323 39.1172L24.6709 34.0308H24.5503L22.3364 22.5407C22.3364 22.5407 19.0543 21.2843 17.8483 20.9441C17.2821 20.6932 16.6568 20.6116 16.0462 20.709C15.4356 20.8064 14.8653 21.0787 14.4026 21.4937C13.9306 21.9123 13.5531 22.429 13.296 23.0087C13.0388 23.5883 12.908 24.2172 12.9124 24.8527C13.0945 25.2582 13.2331 25.6823 13.3258 26.1177C13.3689 26.5365 12.2921 26.4929 11.603 26.4929C10.9138 26.4929 10.8105 25.2365 11.3532 23.7621C11.7766 22.6284 12.3013 21.5362 12.921 20.4991C13.387 19.5728 13.9881 18.7228 14.7041 17.9778C14.7041 17.9778 14.8247 17.6811 15.7809 17.7684C16.7371 17.8556 22.0521 18.1435 22.0521 18.1435L22.0952 16.1631C27.8722 15.3552 33.6987 14.9645 39.5305 14.994C39.5305 15.5262 39.5305 16.0584 39.5305 16.5906C41.7394 15.5696 44.118 14.9777 46.5425 14.8457C46.6723 14.8423 46.8008 14.8717 46.9166 14.9311C47.0323 14.9905 47.1317 15.078 47.2058 15.1859C47.4987 15.5611 49.2819 17.8033 49.4886 18.1261C50.0677 18.9642 50.5942 19.8384 51.065 20.7434C50.9037 21.3165 50.6505 21.8588 50.3156 22.3487V22.3575Z" fill="#FDC305"/>
<path d="M48.6363 17.0181C49.0411 17.5415 49.3943 18.0039 49.4977 18.1435C50.0768 18.9817 50.6033 19.8558 51.0741 20.7609C50.9102 21.3151 50.6601 21.8393 50.3333 22.3138C49.9543 22.689 49.1704 22.942 49.0411 21.8078C48.9119 20.6736 48.8602 19.9233 48.8602 19.9233C48.8602 19.9233 47.1977 16.9308 46.5775 16.8959C45.9572 16.861 41.5553 19.9233 40.3924 21.2582C39.3845 22.3836 39.1864 22.3051 39.1864 24.2856C39.1864 25.5942 39.3328 30.0874 39.2984 34.0832C40.8576 34.2577 43.149 34.6939 43.8381 35.7234C43.8381 35.7234 43.5883 29.4592 50.5659 32.7396C50.5659 32.7396 50.8071 24.1983 60.4378 26.3882C57.1639 22.4952 53.1505 19.3086 48.6363 17.0181V17.0181Z" fill="#F06351"/>
<path d="M39.5654 14.994C39.6004 10.1595 39.1967 5.332 38.3594 0.572359C38.3594 0.572359 38.2302 -0.561827 37.61 0.362971C37.0982 1.46856 36.7499 2.64443 36.5762 3.85277C32.8938 3.61347 29.1975 3.71276 25.5327 4.14941C24.8264 1.75017 23.6204 0.659604 23.0432 0.947513C22.466 1.23542 22.3971 3.80915 22.3971 3.80915L22.1129 16.1631C27.8956 15.3544 33.7279 14.9637 39.5654 14.994V14.994Z" fill="#F06351"/>
<path d="M39.0651 39.2219C39.1771 38.2884 39.2374 37.0495 39.2718 35.6798L32.2515 37.573C30.0459 38.2291 27.8019 38.7449 25.5327 39.1172L26.4889 43.4795C26.4889 43.5755 26.4889 43.6714 26.5492 43.7674C27.8522 44.6235 29.2237 45.3677 30.6494 45.9921C32.7328 44.9834 34.7171 43.777 36.5757 42.3889V42.4413C37.5646 41.5048 38.4044 40.4188 39.0651 39.2219V39.2219Z" fill="#E55645"/>
<path d="M27.5657 12.2632C27.5226 12.176 28.4271 12.8565 28.7803 13.0659C29.1334 13.2752 29.3057 13.4323 29.3057 13.5806C29.3057 13.7289 29.0817 13.8772 28.7716 13.8772C28.4615 13.8772 27.9792 13.7725 27.9103 13.6504C27.8413 13.5283 28.4271 13.6504 28.72 13.6504H28.9698C28.4394 13.2574 27.9667 12.7904 27.5657 12.2632Z" fill="black"/>
<path d="M34.0264 12.3592C34.0264 12.3592 33.165 13.4759 33.0875 13.5283C33.0099 13.5806 32.941 13.8249 33.2511 13.7813C33.6071 13.7274 33.9585 13.6458 34.302 13.537C34.3968 13.4846 34.3623 13.3625 34.1986 13.3799C34.035 13.3974 33.6129 13.4236 33.3373 13.4759L34.0694 12.3679C34.0694 12.3679 34.0953 12.2632 34.0264 12.3592Z" fill="black"/>
<path d="M31.3215 17.6898C31.7208 17.5117 32.0508 17.205 32.2604 16.8174C32.5016 16.2416 32.2604 16.0235 31.8814 15.9449C31.36 15.8486 30.8218 15.9545 30.374 16.2416C30.038 16.5644 30.0811 16.8785 30.374 17.114C30.6649 17.3451 30.9832 17.5386 31.3215 17.6898V17.6898Z" fill="black"/>
<path d="M31.0113 18.7891C30.9124 18.987 30.778 19.1645 30.615 19.3126C30.3697 19.5125 30.0681 19.6286 29.7536 19.6441C29.2794 19.6913 28.8052 19.5541 28.4271 19.2603C28.2535 19.1574 28.0989 19.0245 27.9706 18.8677C27.8844 18.7726 27.7785 18.6981 27.6605 18.6495C27.6605 18.6495 28.3065 22.2353 29.8742 22.8111C31.4419 23.3869 31.7348 22.1481 31.7779 21.8165C31.8304 20.8236 31.5841 19.8379 31.0715 18.9898C31.0715 18.7281 31.0543 18.9026 31.0113 18.7891Z" fill="#F06351"/>
<path d="M29.5469 19.7837C29.1438 19.725 28.7566 19.5842 28.4087 19.3698C28.0608 19.1554 27.7594 18.8718 27.5226 18.5361C27.5015 18.5121 27.4897 18.4811 27.4897 18.4489C27.4897 18.4167 27.5015 18.3856 27.5226 18.3616C27.5339 18.35 27.5473 18.3408 27.5621 18.3345C27.5769 18.3282 27.5927 18.325 27.6088 18.325C27.6248 18.325 27.6407 18.3282 27.6555 18.3345C27.6703 18.3408 27.6837 18.35 27.6949 18.3616C27.9081 18.6645 28.1785 18.9215 28.4905 19.1177C28.8025 19.3139 29.1499 19.4454 29.5124 19.5045C29.7993 19.4827 30.0769 19.3922 30.3225 19.2406C30.5681 19.0889 30.7746 18.8804 30.9251 18.6321L31.0457 18.4663L31.1319 18.6583C31.1319 18.6583 31.4592 19.3213 31.9932 19.3562C32.5273 19.3911 32.9063 18.9898 33.3973 18.2308C33.4156 18.203 33.444 18.1837 33.4763 18.1772C33.5086 18.1706 33.5422 18.1774 33.5696 18.1959C33.597 18.2144 33.616 18.2432 33.6225 18.2759C33.6289 18.3086 33.6223 18.3426 33.604 18.3704C33.0298 19.2254 32.4871 19.6354 31.976 19.6005C31.7785 19.574 31.5893 19.503 31.4224 19.3928C31.2554 19.2826 31.115 19.136 31.0113 18.9636C30.8427 19.202 30.6238 19.3993 30.3705 19.5412C30.1172 19.683 29.8358 19.7659 29.5469 19.7837Z" fill="black"/>
<path d="M31.2353 31.5269C33.0192 31.5269 34.4655 30.0621 34.4655 28.2552C34.4655 26.4483 33.0192 24.9835 31.2353 24.9835C29.4513 24.9835 28.0051 26.4483 28.0051 28.2552C28.0051 30.0621 29.4513 31.5269 31.2353 31.5269Z" fill="#FDC305"/>
<path d="M35.5163 25.5942L32.8201 26.7372L33.8107 21.8253L27.3503 30.3404L30.0465 29.1975L29.0559 34.1181L35.5163 25.5942ZM29.1506 28.9357L32.734 24.2158L32.0363 27.7056L33.7591 26.9902L30.1498 31.7188L30.8476 28.229L29.1506 28.9357Z" fill="#111111"/>
<path d="M27.9447 27.6532C28.4776 27.6532 28.9095 27.2157 28.9095 26.6761C28.9095 26.1364 28.4776 25.6989 27.9447 25.6989C27.4119 25.6989 26.98 26.1364 26.98 26.6761C26.98 27.2157 27.4119 27.6532 27.9447 27.6532Z" fill="#111111"/>
<path d="M33.5612 31.1954C33.9371 31.1954 34.2417 30.8868 34.2417 30.5061C34.2417 30.1255 33.9371 29.8169 33.5612 29.8169C33.1854 29.8169 32.8807 30.1255 32.8807 30.5061C32.8807 30.8868 33.1854 31.1954 33.5612 31.1954Z" fill="#111111"/>
<path d="M34.3882 29.3022C34.5547 29.3022 34.6897 29.1655 34.6897 28.9968C34.6897 28.8282 34.5547 28.6914 34.3882 28.6914C34.2217 28.6914 34.0867 28.8282 34.0867 28.9968C34.0867 29.1655 34.2217 29.3022 34.3882 29.3022Z" fill="#111111"/>
<path d="M39.5224 16.5731C37.9674 17.9928 36.5029 19.511 35.1377 21.1186C33.7778 22.7145 32.2433 24.1487 30.5635 25.3936C30.374 24.9312 29.1594 24.0675 29.1594 24.0675C29.1594 24.0675 26.4545 22.1917 24.6799 20.7172C23.7207 19.908 22.8169 19.0336 21.9751 18.0999L20.2522 18.0039C22.7392 21.6832 26.3826 24.4015 30.5893 25.7164C31.3302 25.5942 33.4148 24.0849 34.974 22.8548C36.8187 21.2659 38.5461 19.5426 40.1426 17.6986C40.5717 17.1821 40.9044 16.5908 41.1246 15.9537C40.1426 16.2852 39.5224 16.5731 39.5224 16.5731Z" fill="#F06351"/>
<path d="M22.3368 22.5407C22.3368 22.5407 19.0548 21.2843 17.8488 20.9441C17.2825 20.6932 16.6572 20.6116 16.0467 20.709C15.4361 20.8064 14.8658 21.0787 14.4031 21.4937C13.931 21.9123 13.5536 22.429 13.2964 23.0087C13.0393 23.5883 12.9084 24.2172 12.9128 24.8527C13.0949 25.2582 13.2335 25.6823 13.3263 26.1177C13.3694 26.5365 12.2926 26.4929 11.6034 26.4929C10.9143 26.4929 10.8109 25.2365 11.3536 23.7621C11.777 22.6284 12.3018 21.5362 12.9214 20.4991C8.22664 22.9769 0 28.7002 0 28.7002C2.35316 28.5564 4.71429 28.6265 7.0551 28.9096C11.5776 29.372 11.3622 32.9839 11.3622 32.9839C12.9529 32.5398 14.574 32.2161 16.2121 32.0155C18.0383 31.8933 18.1675 33.8651 18.1675 33.8651L18.6241 37.2327C19.3173 36.4731 20.0819 35.7835 20.9069 35.1738C21.9703 34.3116 23.3243 33.9046 24.6799 34.0396V34.0396L22.3368 22.5407Z" fill="#F06351"/>
<path d="M73.7899 34.755C72.9025 33.4232 72.4782 31.8301 72.584 30.227V23.6836C72.472 22.0687 72.8899 20.4615 73.7727 19.1119C74.5709 18.0708 75.9348 17.5532 77.8643 17.559C79.7938 17.5648 81.1002 18.0214 81.7836 18.9287C82.6168 20.0531 83.0234 21.4434 82.9292 22.846V24.3815H79.3631V22.7152C79.3583 22.2767 79.3208 21.8392 79.2511 21.4065C79.208 21.0932 79.066 20.8024 78.8462 20.5777C78.7106 20.4598 78.5531 20.3706 78.3831 20.3152C78.213 20.2598 78.0337 20.2392 77.8557 20.2548C77.6 20.2162 77.3388 20.2583 77.1076 20.3754C76.8764 20.4925 76.6864 20.6789 76.5636 20.9092C76.3371 21.5219 76.2374 22.1752 76.2707 22.8286V31.1343C76.2314 31.792 76.3465 32.4498 76.6066 33.0537C76.7309 33.2716 76.9153 33.4479 77.1372 33.5611C77.3591 33.6742 77.6088 33.7192 77.8557 33.6906C78.0982 33.7253 78.3454 33.6816 78.5619 33.5657C78.7785 33.4497 78.9533 33.2675 79.0616 33.045C79.27 32.4311 79.3606 31.7826 79.3286 31.1343V29.3894H82.8948V30.8987C82.9997 32.3221 82.6263 33.7396 81.8353 34.9207C81.0772 35.8804 79.7679 36.3516 77.9073 36.3516C76.0467 36.3516 74.591 35.8281 73.7899 34.755Z" fill="#111111"/>
<path d="M87.788 17.812H91.871L95.3166 36.1334H91.9227L91.3111 32.0853H88.4513L87.7622 36.1073H84.3167L87.788 17.812ZM90.9321 29.782L89.8468 22.4185L88.77 29.782H90.9321Z" fill="#111111"/>
<path d="M97.9615 20.5689H95.1707V17.812H104.405V20.5689H101.648V36.1073H97.9529L97.9615 20.5689Z" fill="#111111"/>
<path d="M111.65 17.812H118.653V19.7139H114.174V25.76H117.809V27.566H114.174V34.2751H118.696V36.1073H111.65V17.812Z" fill="#444444"/>
<path d="M120.729 17.812H122.452L127.62 29.9652V17.812H129.722V36.1334H128.111L122.943 23.64V36.1073H120.807L120.729 17.812Z" fill="#444444"/>
<path d="M132.505 17.812H139.499V19.7139H135.02V25.76H138.69V27.566H135.055V34.2751H139.551V36.1073H132.505V17.812Z" fill="#444444"/>
<path d="M141.576 17.812H145.211C146.643 17.6952 148.07 18.1006 149.234 18.9549C150.095 19.7139 150.517 20.9528 150.517 22.6715C150.517 24.9981 149.773 26.4202 148.286 26.9378L150.87 36.1073H148.424L146.055 27.5224H144.1V36.1073H141.576V17.812ZM145.021 25.664C145.851 25.7454 146.681 25.5088 147.347 25.001C147.618 24.6765 147.82 24.2994 147.942 23.8928C148.063 23.4862 148.101 23.0587 148.053 22.6366C148.071 22.0447 147.986 21.4543 147.804 20.8917C147.73 20.6843 147.615 20.494 147.467 20.3322C147.319 20.1703 147.141 20.0402 146.942 19.9495C146.383 19.7171 145.78 19.6128 145.176 19.6441H144.065V25.6989L145.021 25.664Z" fill="#444444"/>
<path d="M153.911 34.755C153.088 33.3474 152.707 31.7196 152.817 30.0874V23.9802C152.788 22.8017 152.933 21.6253 153.248 20.4904C153.497 19.6372 154.026 18.8955 154.747 18.3878C155.618 17.8563 156.626 17.601 157.641 17.6549C158.298 17.5917 158.961 17.6745 159.582 17.8975C160.204 18.1205 160.771 18.4784 161.242 18.9462C162.068 20.1188 162.459 21.5496 162.344 22.9856V23.6661H159.976V23.099C159.992 22.4208 159.94 21.7426 159.821 21.0749C159.742 20.6471 159.509 20.2643 159.166 20.0018C158.719 19.7346 158.202 19.6099 157.684 19.6441C157.122 19.5954 156.562 19.7706 156.125 20.1327C155.768 20.476 155.534 20.9306 155.462 21.4239C155.353 22.1426 155.304 22.8693 155.315 23.5963V30.3927C155.247 31.4255 155.421 32.46 155.824 33.4114C156.057 33.704 156.354 33.9386 156.691 34.0973C157.028 34.2559 157.396 34.3345 157.768 34.3269C158.139 34.3193 158.504 34.2258 158.835 34.0536C159.165 33.8813 159.452 33.6348 159.674 33.3329C160.089 32.3266 160.269 31.2367 160.2 30.1484V28.8572H157.908V27.0512H162.474V36.1073H160.914L160.665 34.0047C160.467 34.7032 160.042 35.3136 159.459 35.7365C158.876 36.1594 158.168 36.37 157.452 36.3341C156.778 36.3943 156.1 36.2811 155.481 36.005C154.862 35.7289 154.322 35.2989 153.911 34.755V34.755Z" fill="#444444"/>
<path d="M167.711 29.6511L163.809 17.812H166.152L168.917 26.6412L171.639 17.812H174.008L170.132 29.6511V36.1073H167.72L167.711 29.6511Z" fill="#444444"/>
</svg>
