<svg width="256" height="38" viewBox="0 0 256 38" xmlns="http://www.w3.org/2000/svg">
<g clip-path="url(#clip0_94_35)">
<path d="M6.19388 20.9349V18.6514C13.0139 17.7242 19.8916 17.2752 26.7755 17.3076C26.7755 17.9139 26.7755 18.5302 26.7143 19.1465C28.671 18.2867 30.7273 17.6691 32.8367 17.3076C31.4923 13.8643 29.0426 10.9536 25.8644 9.02347C22.6862 7.09332 18.9555 6.25055 15.2463 6.62482C11.5372 6.9991 8.05489 8.56967 5.33522 11.095C2.61556 13.6202 0.809152 16.9603 0.193878 20.6014L6.19388 20.9349Z" fill="#FDC305"/>
<path d="M27.7959 24.4813C26.6122 25.7745 26.3776 25.6937 26.3776 27.967C26.3776 28.8865 26.3776 32.9178 26.3776 37.2422C28.7169 35.7125 30.6373 33.6331 31.9674 31.1895C33.2974 28.746 33.9957 26.0143 34 23.2385C33.9865 22.1869 33.8773 21.1385 33.6735 20.1064C31.5594 21.3486 29.5885 22.8156 27.7959 24.4813Z" fill="#FDC305"/>
<path d="M6.4898 25.9867C6.4898 25.9867 2.62245 24.5318 1.19388 24.1377C0.80313 24.0158 0.404181 23.9212 0 23.8548C0.110608 26.7707 0.985294 29.608 2.53815 32.0879C4.09101 34.5679 6.26863 36.6053 8.85714 38L6.4898 25.9867Z" fill="#FDC305"/>
<path d="M26.8265 17.2975C26.868 11.7189 26.3898 6.14839 25.398 0.656741C25.398 0.656741 25.2551 -0.646636 24.4898 0.414252C23.8887 1.67533 23.4762 3.01635 23.2653 4.39511C18.9202 4.11803 14.5587 4.23302 10.2347 4.73863C9.42857 2.02074 8.0102 0.757778 7.32653 1.01037C6.64286 1.26296 6.59184 4.35469 6.59184 4.35469L6.2551 18.6009C13.0727 17.6875 19.947 17.252 26.8265 17.2975Z" fill="#F06351"/>
<path d="M12.6633 14.1452C12.6633 14.0542 13.6837 14.8322 14.102 15.0747C14.5204 15.3172 14.7245 15.4991 14.7245 15.6708C14.7245 15.8426 14.449 16.0144 14.0816 16.0144C13.7143 16.0144 13.1531 15.8931 13.0612 15.7416H14.0204H14.3163C13.6946 15.2863 13.1385 14.7492 12.6633 14.1452Z" fill="black"/>
<path d="M20.2959 14.2563L19.1837 15.6001C19.1837 15.6607 19.0102 15.9537 19.3673 15.9032C19.79 15.8408 20.2065 15.7428 20.6122 15.6102C20.7245 15.6102 20.6837 15.4182 20.5 15.4384C20.3163 15.4587 19.7959 15.489 19.4796 15.5496L20.3367 14.2765C20.3367 14.2765 20.4082 14.1452 20.2959 14.2563Z" fill="black"/>
<path d="M17.0918 20.4095C17.5648 20.2031 17.9558 19.848 18.2041 19.3991C18.4898 18.7424 18.2041 18.4797 17.7551 18.3887C17.1407 18.2777 16.5066 18.4004 15.9796 18.7323C15.5816 19.096 15.6327 19.4597 15.9286 19.7426C16.287 20.0116 16.6778 20.2356 17.0918 20.4095Z" fill="black"/>
<path d="M16.6837 21.6724C16.5693 21.9033 16.4098 22.1094 16.2143 22.2786C15.9237 22.5102 15.5664 22.6446 15.1939 22.6626C14.657 22.705 14.1231 22.5504 13.6939 22.2281C13.4921 22.1077 13.3098 21.9578 13.1531 21.7836C13.0505 21.6715 12.9254 21.582 12.7857 21.5209C12.7857 21.5209 13.551 25.6634 15.4082 26.3201C17.2653 26.9769 17.5918 25.5624 17.6531 25.1784C17.7144 24.0318 17.4226 22.8937 16.8163 21.9149C16.7959 21.6017 16.7857 21.8038 16.6837 21.6724Z" fill="#F06351"/>
<path d="M15.0102 22.8242C14.536 22.7583 14.0805 22.597 13.6716 22.3503C13.2627 22.1035 12.9092 21.7766 12.6327 21.3895C12.6191 21.3764 12.6083 21.3606 12.6009 21.3433C12.5936 21.3259 12.5898 21.3073 12.5898 21.2885C12.5898 21.2697 12.5936 21.251 12.6009 21.2337C12.6083 21.2163 12.6191 21.2006 12.6327 21.1874C12.646 21.174 12.6618 21.1633 12.6794 21.156C12.6969 21.1487 12.7157 21.145 12.7347 21.145C12.7537 21.145 12.7725 21.1487 12.79 21.156C12.8076 21.1633 12.8234 21.174 12.8367 21.1874C13.3518 21.8889 14.1255 22.3608 14.9898 22.5009C15.3282 22.4757 15.6557 22.3709 15.945 22.1952C16.2343 22.0194 16.477 21.7779 16.6531 21.4906L16.7959 21.2986L16.898 21.5108C16.898 21.5108 17.2755 22.2786 17.9184 22.3191C18.5612 22.3595 18.9898 21.9048 19.5612 21.0258C19.5745 21.0123 19.5904 21.0017 19.6079 20.9944C19.6254 20.9871 19.6443 20.9833 19.6633 20.9833C19.6823 20.9833 19.7011 20.9871 19.7186 20.9944C19.7361 21.0017 19.752 21.0123 19.7653 21.0258C19.7983 21.0466 19.8219 21.0792 19.8314 21.1168C19.8409 21.1544 19.8355 21.1941 19.8163 21.2279C19.1633 22.2382 18.5204 22.6828 17.898 22.6424C17.6612 22.6083 17.4354 22.5215 17.2374 22.3885C17.0395 22.2555 16.8745 22.0797 16.7551 21.8745C16.5544 22.1518 16.2935 22.3811 15.9915 22.5455C15.6896 22.7098 15.3542 22.8051 15.0102 22.8242Z" fill="black"/>
<path d="M26.7755 19.1162C24.9433 20.7567 23.2155 22.508 21.602 24.36C19.9986 26.2051 18.1876 27.8627 16.2041 29.3007C15.9796 28.7652 14.551 27.7751 14.551 27.7751C14.551 27.7751 11.3571 25.6129 9.26531 23.9154C8.13688 22.9731 7.0701 21.9607 6.07143 20.8843L4.03061 20.7732C6.97977 25.0224 11.2961 28.1565 16.2755 29.6645C17.1531 29.523 19.6122 27.7852 21.449 26.3706C23.6111 24.5337 25.6368 22.5448 27.5102 20.4196C28.023 19.8245 28.4176 19.1389 28.6735 18.3988C27.551 18.7929 26.7755 19.1162 26.7755 19.1162Z" fill="#F06351"/>
</g>
<g clip-path="url(#clip1_94_35)">
<path d="M91.2645 29.5385C90.3696 28.2762 89.9253 26.7627 90 25.2308V18.8462C89.8916 17.2977 90.3081 15.7575 91.1855 14.4615C92.0548 13.4615 93.3983 13 95.374 13C97.3498 13 98.6143 13.4615 99.4045 14.3077C100.263 15.3794 100.685 16.7214 100.59 18.0769V19.6154H96.7175V17.8462C96.7488 17.3229 96.6681 16.799 96.4804 16.3077C96.3802 16.1094 96.2212 15.9448 96.024 15.8351C95.8269 15.7255 95.6005 15.6757 95.374 15.6923C94.8208 15.6923 94.4257 15.8462 94.2676 16.2308C94.0888 16.7773 94.0086 17.3499 94.0305 17.9231V26.1538C93.9888 26.71 94.0978 27.267 94.3466 27.7692C94.5047 28.1538 94.8999 28.3077 95.4531 28.3077C96.0063 28.3077 96.3224 28.1538 96.4804 27.7692C96.6601 27.2494 96.7405 26.7019 96.7175 26.1538V24.3077H100.59V25.8462C100.67 27.2238 100.251 28.5852 99.4045 29.6923C98.6143 30.6154 97.2707 31.0769 95.374 31.0769C93.4773 31 92.0548 30.5385 91.2645 29.5385Z" fill="#111111"/>
<path d="M105.253 13.2308H109.757L113.077 30.7692H109.441L108.809 27.0769H106.201L105.569 30.7692H101.854L105.253 13.2308ZM108.493 24.7692L107.545 17.9231L106.596 24.7692H108.493Z" fill="#111111"/>
<path d="M115.843 16.1538H113.156V13.2308H122.56V16.0769H119.873V30.7692H115.843V16.1538Z" fill="#111111"/>
<path d="M129.752 13.2308H136.707V15.0769H132.202V20.8462H135.837V22.6154H132.202V29.0769H136.707V30.8462H129.673V13.2308H129.752Z" fill="#111111"/>
<path d="M138.761 13.2308H140.5L145.637 24.8462V13.2308H147.692V30.7692H146.111L140.895 18.7692V30.7692H138.761V13.2308Z" fill="#111111"/>
<path d="M150.063 13.2308H157.017V15.0769H152.513V20.8462H156.148V22.6154H152.513V29.0769H157.017V30.8462H150.063V13.2308Z" fill="#111111"/>
<path d="M159.072 13.2308H162.707C164.137 13.1346 165.559 13.5144 166.738 14.3077C167.607 15 168.002 16.2308 168.002 17.8462C168.002 20.0769 167.291 21.4615 165.79 21.9231L168.318 30.6923H165.869L163.498 22.4615H161.522V30.6923H158.993V13.2308H159.072ZM162.549 20.7692C163.364 20.8346 164.176 20.6165 164.841 20.1538C165.315 19.7692 165.552 19 165.552 17.8462C165.574 17.273 165.494 16.7004 165.315 16.1538C165.137 15.7617 164.832 15.4373 164.446 15.2308C163.902 14.9893 163.304 14.8836 162.707 14.9231H161.601V20.6923H162.549V20.7692Z" fill="#111111"/>
<path d="M171.164 29.4615C170.342 28.1166 169.956 26.5617 170.057 25V19.1538C170.038 18.0391 170.17 16.9268 170.452 15.8462C170.717 15.0386 171.244 14.3367 171.954 13.8462C172.836 13.3377 173.854 13.0967 174.878 13.1538C176.538 13.1538 177.723 13.5385 178.434 14.3846C179.252 15.5019 179.644 16.8624 179.541 18.2308V18.8462H177.17V18.3077C177.173 17.6635 177.12 17.0201 177.012 16.3846C176.945 15.983 176.718 15.6235 176.379 15.3846C175.935 15.1008 175.408 14.9658 174.878 15C174.311 14.9647 173.75 15.1284 173.297 15.4615C173.111 15.614 172.959 15.8018 172.851 16.0134C172.742 16.2251 172.679 16.4561 172.665 16.6923C172.561 17.38 172.508 18.0741 172.507 18.7692V25.3077C172.449 26.3038 172.61 27.3006 172.981 28.2308C173.297 28.8462 173.93 29.0769 174.878 29.0769C175.252 29.1223 175.632 29.0589 175.97 28.8947C176.307 28.7304 176.587 28.4727 176.775 28.1538C177.192 27.1811 177.381 26.1299 177.328 25.0769V23.8462H175.036V22.0769H179.62V30.7692H178.039L177.802 28.7692C177.595 29.4395 177.163 30.0231 176.576 30.4273C175.989 30.8315 175.28 31.0331 174.562 31C173.909 31.0374 173.256 30.9164 172.663 30.6479C172.07 30.3794 171.555 29.9717 171.164 29.4615Z" fill="#111111"/>
<path d="M184.678 24.6154L180.805 13.3077H183.176L185.942 21.7692L188.629 13.3077H191L187.128 24.6154V30.7692H184.757V24.6154H184.678Z" fill="#111111"/>
</g>
<defs>
<clipPath id="clip0_94_35">
<rect width="34" height="38" fill="white"/>
</clipPath>
<clipPath id="clip1_94_35">
<rect width="101" height="18" fill="white" transform="translate(90 13)"/>
</clipPath>
</defs>
</svg>
