<svg width="32" height="32" viewBox="0 0 32 32" xmlns="http://www.w3.org/2000/svg">
<path fill-rule="evenodd" clip-rule="evenodd" d="M28 16.6145C28 9.90121 22.9148 4.41276 16.5 4.02222V2.5H22.75C23.1642 2.5 23.5 2.16421 23.5 1.75C23.5 1.33579 23.1642 1 22.75 1H16.5H15H8.75C8.33579 1 8 1.33579 8 1.75C8 2.16421 8.33579 2.5 8.75 2.5H15V4.02445C8.60205 4.4331 3.53564 9.91364 3.53564 16.6145C3.53564 20.4288 5.17729 23.8477 7.77166 26.1608C8.22438 26.5644 8.28489 27.2708 7.86173 27.7054L6.42757 29.1781C6.16985 29.4427 6.16984 29.8645 6.42756 30.1291C6.69513 30.4039 7.13664 30.4039 7.40421 30.1292L9.28384 28.199C9.60245 27.8718 10.1004 27.8061 10.5102 28.0076C12.103 28.7907 13.8858 29.229 15.7678 29.229C17.609 29.229 19.3553 28.8095 20.9215 28.0581C21.3298 27.8622 21.8226 27.9298 22.1385 28.2542L23.9644 30.1292C24.2319 30.4039 24.6734 30.4039 24.941 30.1292C25.1987 29.8645 25.1987 29.4427 24.941 29.1781L23.5843 27.7849C23.1584 27.3475 23.2228 26.6356 23.682 26.2333C26.3238 23.9195 28 20.4688 28 16.6145ZM26.6409 16.6145C26.6409 22.8072 21.7728 27.8274 15.7678 27.8274C9.7628 27.8274 4.89478 22.8072 4.89478 16.6145C4.89478 10.4218 9.7628 5.40161 15.7678 5.40161C21.7728 5.40161 26.6409 10.4218 26.6409 16.6145ZM15.0083 12.5001V16.298V16.8406V17.1663C15.0083 17.5857 15.3483 17.9257 15.7677 17.9257C16.2113 17.9257 16.5708 17.5661 16.5708 17.1226V16.8406V16.298V12.5001V8.94092C16.5708 8.50942 16.221 8.15963 15.7895 8.15963C15.3581 8.15963 15.0083 8.50942 15.0083 8.94092V12.5001ZM10.3311 11.415C10.9316 11.415 11.4184 10.9292 11.4184 10.3299C11.4184 9.73057 10.9316 9.24475 10.3311 9.24475C9.73062 9.24475 9.24381 9.73057 9.24381 10.3299C9.24381 10.9292 9.73062 11.415 10.3311 11.415ZM21.2042 11.415C21.8047 11.415 22.2915 10.9292 22.2915 10.3299C22.2915 9.73057 21.8047 9.24475 21.2042 9.24475C20.6037 9.24475 20.1169 9.73057 20.1169 10.3299C20.1169 10.9292 20.6037 11.415 21.2042 11.415ZM11.4184 23.3513C11.4184 23.9506 10.9316 24.4364 10.3311 24.4364C9.73062 24.4364 9.24381 23.9506 9.24381 23.3513C9.24381 22.752 9.73062 22.2661 10.3311 22.2661C10.9316 22.2661 11.4184 22.752 11.4184 23.3513ZM15.7677 26.6066C16.3682 26.6066 16.855 26.1208 16.855 25.5215C16.855 24.9222 16.3682 24.4364 15.7677 24.4364C15.1672 24.4364 14.6804 24.9222 14.6804 25.5215C14.6804 26.1208 15.1672 26.6066 15.7677 26.6066ZM8.15654 16.7749C8.15654 17.3742 7.66974 17.86 7.06924 17.86C6.46874 17.86 5.98193 17.3742 5.98193 16.7749C5.98193 16.1756 6.46874 15.6897 7.06924 15.6897C7.66974 15.6897 8.15654 16.1756 8.15654 16.7749ZM24.4661 17.86C25.0666 17.86 25.5534 17.3742 25.5534 16.7749C25.5534 16.1756 25.0666 15.6897 24.4661 15.6897C23.8656 15.6897 23.3788 16.1756 23.3788 16.7749C23.3788 17.3742 23.8656 17.86 24.4661 17.86ZM22.2915 23.3513C22.2915 23.9506 21.8047 24.4364 21.2042 24.4364C20.6037 24.4364 20.1169 23.9506 20.1169 23.3513C20.1169 22.752 20.6037 22.2661 21.2042 22.2661C21.8047 22.2661 22.2915 22.752 22.2915 23.3513Z" fill="white"/>
</svg>
