<svg width="80" height="80" viewBox="0 0 80 80" xmlns="http://www.w3.org/2000/svg">
<path d="M65.0156 34.7127H15.031C13.2766 34.7127 11.8494 33.2951 11.8494 31.5524V22.0842C11.8494 20.3415 13.2766 18.9233 15.031 18.9233H65.0149C66.7687 18.9233 68.1953 20.3415 68.1953 22.0842V31.553C68.1959 33.2951 66.7693 34.7127 65.0156 34.7127ZM15.031 21.3455C14.6276 21.3455 14.2869 21.684 14.2869 22.0842V31.553C14.2869 31.9599 14.6208 32.2912 15.031 32.2912H65.0149C65.4244 32.2912 65.7578 31.9599 65.7578 31.553V22.0842C65.7578 21.6834 65.4171 21.3455 65.0149 21.3455H15.031Z" fill="white"/>
<path d="M58.0447 67.1488H21.999C18.6218 67.1488 15.8741 64.4191 15.8741 61.0626V33.5016C15.8741 32.8331 16.4201 32.2905 17.0929 32.2905C17.7656 32.2905 18.3116 32.8331 18.3116 33.5016V61.0626C18.3116 63.0833 19.9661 64.7267 21.999 64.7267H58.0447C60.077 64.7267 61.7308 63.0833 61.7308 61.0626V33.5016C61.7308 32.8331 62.2768 32.2905 62.9496 32.2905C63.6223 32.2905 64.1683 32.8331 64.1683 33.5016V61.0626C64.1683 64.4191 61.4213 67.1488 58.0447 67.1488Z" fill="white"/>
<path d="M40.0225 67.1488C39.3498 67.1488 38.8038 66.6069 38.8038 65.9378V33.5016C38.8038 32.8331 39.3498 32.2905 40.0225 32.2905C40.6953 32.2905 41.2413 32.8331 41.2413 33.5016V65.9372C41.2413 66.6069 40.6959 67.1488 40.0225 67.1488Z" fill="white"/>
<path d="M24.8113 21.3414C20.9966 19.2874 19.5731 14.5327 21.6383 10.7415C23.7022 6.95201 28.4864 5.53687 32.303 7.58721C38.117 10.7166 41.2565 19.4472 41.3869 19.8172L39.0877 20.6208C39.0585 20.5384 36.1256 12.3994 31.1433 9.71749C28.5078 8.30175 25.2062 9.27908 23.7821 11.8944C22.3567 14.5121 23.339 17.7941 25.9734 19.2117L24.8113 21.3414Z" fill="white"/>
<path d="M55.2313 21.3413L54.071 19.2111C55.3477 18.5238 56.2782 17.3848 56.6926 16.0035C57.1063 14.6217 56.9534 13.1624 56.2617 11.895C55.5719 10.6264 54.4263 9.70233 53.0363 9.29117C51.6457 8.88001 50.1783 9.0314 48.9023 9.71747C43.9201 12.3988 40.9871 20.5378 40.9579 20.6202L38.6587 19.8166C38.7891 19.4466 41.928 10.716 47.7421 7.58719C49.5897 6.5929 51.7182 6.3737 53.7316 6.96955C55.7468 7.56479 57.4061 8.90484 58.4061 10.7414C59.4073 12.5774 59.6285 14.6913 59.0289 16.6939C58.4287 18.6958 57.0801 20.3458 55.2313 21.3413Z" fill="white"/>
<path d="M62.9496 50.9314H17.0929C16.4201 50.9314 15.8741 50.3889 15.8741 49.7204C15.8741 49.0518 16.4201 48.5093 17.0929 48.5093H62.9496C63.6223 48.5093 64.1683 49.0518 64.1683 49.7204C64.1683 50.3889 63.6229 50.9314 62.9496 50.9314Z" fill="white"/>
</svg>
