<svg width="28" height="28" viewBox="0 0 28 28" fill="none" xmlns="http://www.w3.org/2000/svg">
<path fill-rule="evenodd" clip-rule="evenodd" d="M13.1241 5.75681C14.0875 4.81207 15.392 4.2832 16.75 4.2832H19.5C19.8038 4.2832 20.05 4.52945 20.05 4.8332V8.42855C20.05 8.7323 19.8038 8.97855 19.5 8.97855H16.75C16.6493 8.97855 16.5549 9.01787 16.4869 9.08452C16.4193 9.15081 16.3834 9.23839 16.3834 9.32738V11.4739H19.5C19.6698 11.4739 19.8301 11.5523 19.9343 11.6864C20.0385 11.8205 20.0749 11.9952 20.033 12.1598L19.1163 15.7551C19.0542 15.9987 18.8348 16.1692 18.5834 16.1692H16.3834V22.8099C16.3834 23.1137 16.1371 23.3599 15.8334 23.3599H12.1667C11.8629 23.3599 11.6167 23.1137 11.6167 22.8099V16.1692H9.4167C9.11294 16.1692 8.8667 15.923 8.8667 15.6192V12.0239C8.8667 11.7201 9.11294 11.4739 9.4167 11.4739H11.6167V9.32738C11.6167 7.98606 12.1602 6.70191 13.1241 5.75681ZM16.75 5.3832C15.6769 5.3832 14.6498 5.80132 13.8942 6.54223C13.139 7.28277 12.7167 8.28485 12.7167 9.32738V12.0239C12.7167 12.3276 12.4705 12.5739 12.1667 12.5739H9.9667V15.0692H12.1667C12.4705 15.0692 12.7167 15.3155 12.7167 15.6192V22.2599H15.2834V15.6192C15.2834 15.3155 15.5296 15.0692 15.8334 15.0692H18.156L18.7922 12.5739H15.8334C15.5296 12.5739 15.2834 12.3276 15.2834 12.0239V9.32738C15.2834 8.9396 15.4406 8.56994 15.7168 8.2991C15.9926 8.02862 16.3645 7.87855 16.75 7.87855H18.95V5.3832H16.75Z" fill="#666666"/>
</svg>
