<svg width="20" height="20" viewBox="0 0 20 20" xmlns="http://www.w3.org/2000/svg">
<g clip-path="url(#clip0_49781_443)">
<path fill-rule="evenodd" clip-rule="evenodd" d="M8.11723 13.2585V19.4859C8.11875 19.5612 8.10335 19.6359 8.07216 19.7045C8.04096 19.773 7.99479 19.8337 7.93704 19.8819C7.8793 19.9301 7.81147 19.9647 7.73858 19.9831C7.66569 20.0015 7.5896 20.0032 7.51596 19.9881H2.90619C2.50665 19.9906 2.11092 19.9101 1.7439 19.7519C1.37688 19.5936 1.0465 19.3609 0.773542 19.0684C0.500586 18.776 0.290957 18.4301 0.157838 18.0525C0.024719 17.6749 -0.0290097 17.2738 3.08617e-05 16.8744V2.91286C0.0129736 2.51708 0.10362 2.12774 0.266789 1.7671C0.429957 1.40645 0.662446 1.08158 0.950964 0.811059C1.23948 0.540535 1.57837 0.329662 1.94825 0.190498C2.31813 0.051334 2.71176 -0.0133923 3.10661 1.99946e-05H7.51596C7.6779 0.0233755 7.82986 0.0924502 7.95408 0.19917C8.0783 0.30589 8.16965 0.445845 8.21744 0.602676V6.93057C8.20587 7.08656 8.1388 7.23319 8.02845 7.3438C7.9181 7.4544 7.7718 7.52162 7.61617 7.53323H3.20683C3.21199 7.21517 3.34034 6.91159 3.56475 6.68666C3.78917 6.46173 4.09205 6.33309 4.40937 6.32791H6.81447V1.30578H2.90619C2.44278 1.32409 2.00495 1.52358 1.68651 1.86153C1.36808 2.19947 1.19436 2.64898 1.20258 3.11374V17.1757C1.21407 17.4137 1.27264 17.6471 1.37488 17.8622C1.47713 18.0773 1.62102 18.2699 1.79819 18.4287C1.97535 18.5876 2.18226 18.7096 2.40688 18.7876C2.6315 18.8657 2.86935 18.8982 3.10661 18.8833H6.81447V13.8611H4.30916C3.99184 13.8559 3.68895 13.7273 3.46454 13.5024C3.24013 13.2774 3.11177 12.9739 3.10661 12.6558H7.51596C7.67159 12.6674 7.81789 12.7346 7.92824 12.8452C8.03859 12.9558 8.10566 13.1025 8.11723 13.2585ZM9.41997 9.44159H17.938L15.8336 7.43273L16.7355 6.52875L19.8421 9.64247C19.9396 9.77287 19.9924 9.93147 19.9924 10.0945C19.9924 10.2575 19.9396 10.4161 19.8421 10.5465L16.7355 13.6602L15.8336 12.7562L17.938 10.6469H9.41997V9.44159Z" fill="black"/>
</g>
<defs>
<clipPath id="clip0_49781_443">
<rect width="20" height="20" fill="white"/>
</clipPath>
</defs>
</svg>
