<svg width="24" height="24" viewBox="0 0 24 24" xmlns="http://www.w3.org/2000/svg">
<g clip-path="url(#clip0_49515_389)">
<path fill-rule="evenodd" clip-rule="evenodd" d="M24 3.75H8.01496e-06V2.25H24V3.75ZM24 12.75H3.4254e-06V11.25H24V12.75ZM0 21.75H0.0548704H0.109647H0.16433H0.21892H0.273417H0.327822H0.382134H0.436355H0.490485H0.544524H0.598472H0.65233H0.706098H0.759777H0.813366H0.866867H0.92028H0.973604H1.02684H1.07999H1.13305H1.18603H1.23892H1.29172H1.34444H1.39708H1.44963H1.50209H1.55447H1.60677H1.65898H1.71112H1.76316H1.81513H1.86702H1.91882H1.97054H2.02218H2.07375H2.12523H2.17663H2.22795H2.2792H2.33036H2.38145H2.43246H2.4834H2.53425H2.58503H2.63573H2.68636H2.73691H2.78739H2.83779H2.88812H2.93837H2.98855H3.03866H3.0887H3.13866H3.18855H3.23836H3.28811H3.33778H3.38739H3.43692H3.48639H3.53578H3.58511H3.63436H3.68355H3.73267H3.78172H3.83071H3.87963H3.92848H3.97726H4.02598H4.07463H4.12322H4.17174H4.2202H4.2686H4.31693H4.3652H4.4134H4.46154H4.50963H4.55764H4.6056H4.6535H4.70133H4.74911H4.79682H4.84448H4.89207H4.93961H4.98709H5.03451H5.08187H5.12917H5.17642H5.22361H5.27075H5.31783H5.36485H5.41182H5.45873H5.50559H5.55239H5.59914H5.64584H5.69249H5.73908H5.78562H5.8321H5.87854H5.92492H5.97126H6.01754H6.06378H6.10996H6.15609H6.20218H6.24822H6.29421H6.34015H6.38604H6.43189H6.47768H6.52344H6.56914H6.61481H6.66042H6.70599H6.75152H6.797H6.84244H6.88784H6.93319H6.9785H7.02377H7.06899H7.11417H7.15932H7.20442H7.24948H7.2945H7.33948H7.38442H7.42932H7.47419H7.51901H7.5638H7.60855H7.65326H7.69794H7.74258H7.78718H7.83175H7.87629H7.92078H7.96525H8.00967H8.05407H8.09843H8.14276H8.18705H8.23132H8.27555H8.31975H8.36392H8.40805H8.45216H8.49624H8.54028H8.5843H8.62829H8.67225H8.71618H8.76008H8.80396H8.84781H8.89163H8.93542H8.97919H9.02293H9.06665H9.11034H9.15401H9.19765H9.24127H9.28487H9.32844H9.37199H9.41552H9.45903H9.50251H9.54597H9.58941H9.63283H9.67624H9.71962H9.76298H9.80632H9.84964H9.89295H9.93623H9.9795H10.0228H10.066H10.1092H10.1524H10.1956H10.2388H10.2819H10.3251H10.3682H10.4113H10.4544H10.4975H10.5406H10.5836H10.6267H10.6697H10.7127H10.7557H10.7987H10.8417H10.8847H10.9277H10.9707H11.0136H11.0566H11.0995H11.1424H11.1854H11.2283H11.2712H11.3141H11.357H11.3999H11.4428H11.4856H11.5285H11.5714H11.6143H11.6571H11.7H11.7429H11.7857H11.8286H11.8714H11.9143H11.9571H12H12.0429H12.0857H12.1286H12.1714H12.2143H12.2571H12.3H12.3429H12.3857H12.4286H12.4715H12.5144H12.5572H12.6001H12.643H12.6859H12.7288H12.7717H12.8146H12.8576H12.9005H12.9434H12.9864H13.0293H13.0723H13.1153H13.1583H13.2013H13.2443H13.2873H13.3303H13.3733H13.4164H13.4594H13.5025H13.5456H13.5887H13.6318H13.6749H13.7181H13.7612H13.8044H13.8476H13.8908H13.934H13.9772H14.0205H14.0638H14.1071H14.1504H14.1937H14.237H14.2804H14.3238H14.3672H14.4106H14.454H14.4975H14.541H14.5845H14.628H14.6716H14.7151H14.7587H14.8023H14.846H14.8897H14.9333H14.9771H15.0208H15.0646H15.1084H15.1522H15.196H15.2399H15.2838H15.3278H15.3717H15.4157H15.4597H15.5038H15.5478H15.5919H15.6361H15.6803H15.7245H15.7687H15.8129H15.8572H15.9016H15.9459H15.9903H16.0348H16.0792H16.1237H16.1682H16.2128H16.2574H16.3021H16.3467H16.3914H16.4362H16.481H16.5258H16.5707H16.6156H16.6605H16.7055H16.7505H16.7956H16.8407H16.8858H16.931H16.9762H17.0215H17.0668H17.1122H17.1576H17.203H17.2485H17.294H17.3396H17.3852H17.4309H17.4766H17.5223H17.5681H17.614H17.6599H17.7058H17.7518H17.7978H17.8439H17.89H17.9362H17.9825H18.0287H18.0751H18.1215H18.1679H18.2144H18.2609H18.3075H18.3542H18.4009H18.4476H18.4944H18.5413H18.5882H18.6352H18.6822H18.7293H18.7764H18.8236H18.8708H18.9181H18.9655H19.0129H19.0604H19.1079H19.1555H19.2032H19.2509H19.2987H19.3465H19.3944H19.4424H19.4904H19.5385H19.5866H19.6348H19.6831H19.7314H19.7798H19.8283H19.8768H19.9254H19.974H20.0227H20.0715H20.1204H20.1693H20.2183H20.2673H20.3165H20.3656H20.4149H20.4642H20.5136H20.5631H20.6126H20.6622H20.7119H20.7616H20.8115H20.8613H20.9113H20.9613H21.0114H21.0616H21.1119H21.1622H21.2126H21.2631H21.3136H21.3643H21.415H21.4657H21.5166H21.5675H21.6185H21.6696H21.7208H21.772H21.8234H21.8748H21.9263H21.9778H22.0295H22.0812H22.133H22.1849H22.2368H22.2889H22.341H22.3932H22.4455H22.4979H22.5504H22.6029H22.6556H22.7083H22.7611H22.814H22.8669H22.92H22.9732H23.0264H23.0797H23.1331H23.1866H23.2402H23.2939H23.3477H23.4015H23.4555H23.5095H23.5636H23.6179H23.6722H23.7266H23.7811H23.8357H23.8904H23.9451H24V20.25H23.9451H23.8904H23.8357H23.7811H23.7266H23.6722H23.6179H23.5636H23.5095H23.4555H23.4015H23.3477H23.2939H23.2402H23.1866H23.1331H23.0797H23.0264H22.9732H22.92H22.8669H22.814H22.7611H22.7083H22.6556H22.6029H22.5504H22.4979H22.4455H22.3932H22.341H22.2889H22.2368H22.1849H22.133H22.0812H22.0295H21.9778H21.9263H21.8748H21.8234H21.772H21.7208H21.6696H21.6185H21.5675H21.5166H21.4657H21.415H21.3643H21.3136H21.2631H21.2126H21.1622H21.1119H21.0616H21.0114H20.9613H20.9113H20.8613H20.8115H20.7616H20.7119H20.6622H20.6126H20.5631H20.5136H20.4642H20.4149H20.3656H20.3165H20.2673H20.2183H20.1693H20.1204H20.0715H20.0227H19.974H19.9254H19.8768H19.8283H19.7798H19.7314H19.6831H19.6348H19.5866H19.5385H19.4904H19.4424H19.3944H19.3465H19.2987H19.2509H19.2032H19.1555H19.1079H19.0604H19.0129H18.9655H18.9181H18.8708H18.8236H18.7764H18.7293H18.6822H18.6352H18.5882H18.5413H18.4944H18.4476H18.4009H18.3542H18.3075H18.2609H18.2144H18.1679H18.1215H18.0751H18.0287H17.9825H17.9362H17.89H17.8439H17.7978H17.7518H17.7058H17.6599H17.614H17.5681H17.5223H17.4766H17.4309H17.3852H17.3396H17.294H17.2485H17.203H17.1576H17.1122H17.0668H17.0215H16.9762H16.931H16.8858H16.8407H16.7956H16.7505H16.7055H16.6605H16.6156H16.5707H16.5258H16.481H16.4362H16.3914H16.3467H16.3021H16.2574H16.2128H16.1682H16.1237H16.0792H16.0348H15.9903H15.9459H15.9016H15.8572H15.8129H15.7687H15.7245H15.6803H15.6361H15.5919H15.5478H15.5038H15.4597H15.4157H15.3717H15.3278H15.2838H15.2399H15.196H15.1522H15.1084H15.0646H15.0208H14.9771H14.9333H14.8897H14.846H14.8023H14.7587H14.7151H14.6716H14.628H14.5845H14.541H14.4975H14.454H14.4106H14.3672H14.3238H14.2804H14.237H14.1937H14.1504H14.1071H14.0638H14.0205H13.9772H13.934H13.8908H13.8476H13.8044H13.7612H13.7181H13.6749H13.6318H13.5887H13.5456H13.5025H13.4594H13.4164H13.3733H13.3303H13.2873H13.2443H13.2013H13.1583H13.1153H13.0723H13.0293H12.9864H12.9434H12.9005H12.8576H12.8146H12.7717H12.7288H12.6859H12.643H12.6001H12.5572H12.5144H12.4715H12.4286H12.3857H12.3429H12.3H12.2571H12.2143H12.1714H12.1286H12.0857H12.0429H12H11.9571H11.9143H11.8714H11.8286H11.7857H11.7429H11.7H11.6571H11.6143H11.5714H11.5285H11.4856H11.4428H11.3999H11.357H11.3141H11.2712H11.2283H11.1854H11.1424H11.0995H11.0566H11.0136H10.9707H10.9277H10.8847H10.8417H10.7987H10.7557H10.7127H10.6697H10.6267H10.5836H10.5406H10.4975H10.4544H10.4113H10.3682H10.3251H10.2819H10.2388H10.1956H10.1524H10.1092H10.066H10.0228H9.9795H9.93623H9.89295H9.84964H9.80632H9.76298H9.71962H9.67624H9.63283H9.58941H9.54597H9.50251H9.45903H9.41552H9.37199H9.32844H9.28487H9.24127H9.19765H9.15401H9.11034H9.06665H9.02293H8.97919H8.93542H8.89163H8.84781H8.80396H8.76008H8.71618H8.67225H8.62829H8.5843H8.54028H8.49624H8.45216H8.40805H8.36392H8.31975H8.27555H8.23132H8.18705H8.14276H8.09843H8.05407H8.00967H7.96525H7.92078H7.87629H7.83175H7.78718H7.74258H7.69794H7.65326H7.60855H7.5638H7.51901H7.47419H7.42932H7.38442H7.33948H7.2945H7.24948H7.20442H7.15932H7.11417H7.06899H7.02377H6.9785H6.93319H6.88784H6.84244H6.797H6.75152H6.70599H6.66042H6.61481H6.56914H6.52344H6.47768H6.43189H6.38604H6.34015H6.29421H6.24822H6.20218H6.15609H6.10996H6.06378H6.01754H5.97126H5.92492H5.87854H5.8321H5.78562H5.73908H5.69249H5.64584H5.59914H5.55239H5.50559H5.45873H5.41182H5.36485H5.31783H5.27075H5.22361H5.17642H5.12917H5.08187H5.03451H4.98709H4.93961H4.89207H4.84448H4.79682H4.74911H4.70133H4.6535H4.6056H4.55764H4.50963H4.46154H4.4134H4.3652H4.31693H4.2686H4.2202H4.17174H4.12322H4.07463H4.02598H3.97726H3.92848H3.87963H3.83071H3.78172H3.73267H3.68355H3.63436H3.58511H3.53578H3.48639H3.43692H3.38739H3.33778H3.28811H3.23836H3.18855H3.13866H3.0887H3.03866H2.98855H2.93837H2.88812H2.83779H2.78739H2.73691H2.68636H2.63573H2.58503H2.53425H2.4834H2.43246H2.38145H2.33036H2.2792H2.22795H2.17663H2.12523H2.07375H2.02218H1.97054H1.91882H1.86702H1.81513H1.76316H1.71112H1.65898H1.60677H1.55447H1.50209H1.44963H1.39708H1.34444H1.29172H1.23892H1.18603H1.13305H1.07999H1.02684H0.973604H0.92028H0.866867H0.813366H0.759777H0.706098H0.65233H0.598472H0.544524H0.490485H0.436355H0.382134H0.327822H0.273417H0.21892H0.16433H0.109647H0.0548704H0V21.75Z" fill="black"/>
</g>
<defs>
<clipPath id="clip0_49515_389">
<rect width="24" height="24" fill="white"/>
</clipPath>
</defs>
</svg>
