<svg width="28" height="28" viewBox="0 0 28 28" fill="none" xmlns="http://www.w3.org/2000/svg">
<path d="M13.9805 4.07812C15.6471 4.07812 17.0078 4.09766 18.0625 4.13672C18.9609 4.17578 19.7617 4.33203 20.4648 4.60547C21.1419 4.86589 21.7279 5.24349 22.2227 5.73828C22.7174 6.23307 23.0951 6.81901 23.3555 7.49609C23.6289 8.19922 23.7852 9 23.8242 9.89844C23.8633 10.9531 23.8828 12.3138 23.8828 13.9805C23.8828 15.6471 23.8633 17.0078 23.8242 18.0625C23.7852 18.9609 23.6289 19.7617 23.3555 20.4648C23.0951 21.1419 22.7174 21.7279 22.2227 22.2227C21.7279 22.7174 21.1419 23.0951 20.4648 23.3555C19.7617 23.6289 18.9609 23.7852 18.0625 23.8242C17.0078 23.8633 15.6471 23.8828 13.9805 23.8828C12.3138 23.8828 10.9531 23.8633 9.89844 23.8242C9 23.7852 8.19922 23.6289 7.49609 23.3555C6.81901 23.0951 6.23307 22.7174 5.73828 22.2227C5.24349 21.7279 4.86589 21.1419 4.60547 20.4648C4.33203 19.7617 4.17578 18.9609 4.13672 18.0625C4.09766 17.0078 4.07812 15.6471 4.07812 13.9805C4.07812 12.3138 4.09766 10.9531 4.13672 9.89844C4.17578 9 4.33203 8.19922 4.60547 7.49609C4.86589 6.81901 5.24349 6.23307 5.73828 5.73828C6.23307 5.24349 6.81901 4.86589 7.49609 4.60547C8.19922 4.33203 9 4.17578 9.89844 4.13672C10.9531 4.09766 12.3138 4.07812 13.9805 4.07812ZM13.9805 5.36719C12.2487 5.36719 10.8359 5.38672 9.74219 5.42578C9.03906 5.45182 8.38802 5.57552 7.78906 5.79687C6.85156 6.1875 6.1875 6.85156 5.79688 7.78906C5.57552 8.38802 5.45182 9.03906 5.42578 9.74219C5.38672 10.8359 5.36719 12.2487 5.36719 13.9805C5.36719 15.7122 5.38672 17.125 5.42578 18.2187C5.45182 18.9219 5.57552 19.5729 5.79688 20.1719C6.1875 21.1094 6.85156 21.7734 7.78906 22.1641C8.38802 22.3854 9.03906 22.5091 9.74219 22.5352C10.8359 22.5742 12.2487 22.5937 13.9805 22.5937C15.7122 22.5937 17.125 22.5742 18.2188 22.5352C18.9219 22.5091 19.5729 22.3854 20.1719 22.1641C21.1094 21.7734 21.7734 21.1094 22.1641 20.1719C22.3854 19.5729 22.5091 18.9219 22.5352 18.2187C22.5742 17.125 22.5938 15.7122 22.5938 13.9805C22.5938 12.2487 22.5742 10.8359 22.5352 9.74219C22.5091 9.03906 22.3854 8.38802 22.1641 7.78906C21.7734 6.85156 21.1094 6.1875 20.1719 5.79687C19.5729 5.57552 18.9219 5.45182 18.2188 5.42578C17.125 5.38672 15.7122 5.36719 13.9805 5.36719ZM13.9805 17.9453C15.0742 17.9453 16.0085 17.5579 16.7832 16.7832C17.5579 16.0085 17.9453 15.0742 17.9453 13.9805C17.9453 12.8867 17.5579 11.9525 16.7832 11.1777C16.0085 10.403 15.0742 10.0156 13.9805 10.0156C12.8867 10.0156 11.9525 10.403 11.1777 11.1777C10.403 11.9525 10.0156 12.8867 10.0156 13.9805C10.0156 15.0742 10.403 16.0085 11.1777 16.7832C11.9525 17.5579 12.8867 17.9453 13.9805 17.9453ZM13.9805 8.90234C15.3867 8.90234 16.5846 9.39713 17.5742 10.3867C18.5638 11.3763 19.0586 12.5742 19.0586 13.9805C19.0586 15.3867 18.5638 16.5846 17.5742 17.5742C16.5846 18.5638 15.3867 19.0586 13.9805 19.0586C12.5742 19.0586 11.3763 18.5638 10.3867 17.5742C9.39714 16.5846 8.90234 15.3867 8.90234 13.9805C8.90234 12.5742 9.39714 11.3763 10.3867 10.3867C11.3763 9.39713 12.5742 8.90234 13.9805 8.90234ZM20.4648 8.70703C20.4648 9.03255 20.3477 9.30924 20.1133 9.53711C19.8789 9.76497 19.5924 9.87891 19.2539 9.87891C18.9284 9.87891 18.6517 9.76497 18.4238 9.53711C18.196 9.30924 18.082 9.03255 18.082 8.70703C18.082 8.36849 18.196 8.08203 18.4238 7.84766C18.6517 7.61328 18.9284 7.49609 19.2539 7.49609C19.5794 7.49609 19.8626 7.61654 20.1035 7.85742C20.3444 8.09831 20.4648 8.38151 20.4648 8.70703Z" fill="#666666"/>
</svg>
